<svg width="24" height="24" viewBox="0 0 24 24" fill="none" xmlns="http://www.w3.org/2000/svg">
<path d="M12 3.75C12.2724 3.75 12.5232 3.89789 12.6555 4.13599L20.1555 17.636C20.2844 17.8682 20.2813 18.1512 20.1467 18.3801C20.012 18.6092 19.7657 18.75 19.5 18.75H4.49998C4.23425 18.75 3.98802 18.6092 3.85325 18.3801C3.71869 18.1512 3.71554 17.8682 3.84447 17.636L11.3445 4.13599L11.3994 4.05103C11.5398 3.8632 11.7616 3.75 12 3.75ZM5.7744 17.25H18.2256L12 6.04395L5.7744 17.25ZM12 15C12.4142 15 12.75 15.3358 12.75 15.75C12.75 16.1642 12.4142 16.5 12 16.5C11.5858 16.5 11.25 16.1642 11.25 15.75C11.25 15.3358 11.5858 15 12 15ZM12 9C12.4142 9.00001 12.75 9.33579 12.75 9.75V13.5C12.75 13.9142 12.4142 14.25 12 14.25C11.5858 14.25 11.25 13.9142 11.25 13.5V9.75C11.25 9.33579 11.5858 9 12 9Z" fill="black"/>
</svg>
