<svg width="24" height="24" viewBox="0 0 24 24" fill="none" xmlns="http://www.w3.org/2000/svg">
<path fill-rule="evenodd" clip-rule="evenodd" d="M15.2408 16.464C15.4085 16.5578 15.6236 16.5477 15.7723 16.4071L15.7786 16.4138C16.2278 15.9918 17.0441 15.2382 17.5029 14.8329C17.6864 14.6722 17.6547 14.4143 17.5092 14.1999C17.4651 14.1353 17.4207 14.0719 17.3766 14.009C17.0093 13.4849 16.6613 12.9884 16.6613 11.9928V8.28178C16.6613 8.15499 16.662 8.02902 16.6627 7.90401C16.6704 6.48029 16.6774 5.18014 15.671 4.18569C14.8073 3.30816 13.3772 3 12.2825 3C10.1437 3 7.75505 3.84407 7.252 6.64398C7.20139 6.94212 7.40386 7.09948 7.58732 7.14311L9.77044 7.39091C9.97292 7.38088 10.1216 7.16987 10.1596 6.95546C10.3462 5.99088 11.1119 5.52536 11.9693 5.52536C12.4313 5.52536 12.9565 5.70623 13.2318 6.145C13.5128 6.58382 13.5086 7.16833 13.5047 7.69275C13.5043 7.75267 13.5039 7.8118 13.5039 7.86984V8.178C13.2934 8.20342 13.0724 8.22734 12.8447 8.252C11.6622 8.38004 10.2977 8.52778 9.27366 9.00527C7.86582 9.64828 6.87547 10.9646 6.87547 12.8971C6.87547 15.3721 8.34986 16.608 10.2419 16.608C11.8428 16.608 12.716 16.2095 13.9499 14.8765C14.015 14.9755 14.0731 15.0666 14.1277 15.1522C14.4186 15.608 14.6122 15.9114 15.2408 16.464ZM13.5039 10.7293C13.5039 10.6874 13.5039 10.6453 13.5039 10.6028V10.087C11.8775 10.087 10.1596 10.4554 10.1596 12.4851C10.1596 13.5133 10.6626 14.21 11.5264 14.21C12.1592 14.21 12.7255 13.798 13.083 13.1281C13.5057 12.3419 13.5049 11.6015 13.5039 10.7293ZM15.7723 16.4071C15.7723 16.4071 15.7723 16.4071 15.7723 16.4071H15.7723L15.7723 16.4071Z" fill="black"/>
<path d="M4.21232 16.6959C7.00601 18.4989 11.3304 21.2899 18.2228 17.8175H18.2227C18.5198 17.6863 18.7274 17.9054 18.4335 18.3027C18.1376 18.7033 15.7721 21 11.796 21C7.82254 21 4.77845 18.1263 3.84958 16.9341C3.59515 16.6247 3.88839 16.485 4.06092 16.5982C4.11088 16.6304 4.16135 16.663 4.21232 16.6959Z" fill="black"/>
<path d="M18.4452 16.4354C19.0478 16.357 20.0054 16.4054 20.1939 16.6652H20.1938C20.337 16.863 20.1891 17.7521 19.9464 18.3895C19.702 19.0234 19.3379 19.4713 19.1367 19.6443C18.9328 19.8173 18.7828 19.7503 18.8913 19.4905C19.0037 19.2307 19.619 17.6198 19.3752 17.2817C19.1493 16.9691 18.1246 17.0823 17.6486 17.1348C17.6132 17.1387 17.5808 17.1423 17.552 17.1454C17.4515 17.1549 17.3704 17.1645 17.3048 17.1722C17.0999 17.1964 17.0451 17.2029 17.0145 17.1364C16.9358 16.9019 17.8417 16.5115 18.4452 16.4354Z" fill="black"/>
</svg>
