<svg width="24" height="24" viewBox="0 0 24 24" fill="none" xmlns="http://www.w3.org/2000/svg">
<path fill-rule="evenodd" clip-rule="evenodd" d="M10.8645 4.24924C10.4768 3.58016 9.5147 3.58447 9.13292 4.2571C8.95568 4.56923 8.95737 4.95282 9.13736 5.26342L10.8429 8.20593L7.36139 14.2134H4.00383C3.23437 14.2112 2.75116 15.0482 3.13401 15.72C3.3127 16.0335 3.64477 16.2265 4.00383 16.2255H7.90917H7.9595H12.7996C13.569 16.2276 14.0523 15.3905 13.6694 14.7188C13.4907 14.4053 13.1587 14.2124 12.7996 14.2134H9.67549L12.8524 8.73149L12.8732 8.69608L14.8626 5.26342C15.2504 4.59426 14.7731 3.75347 14.0035 3.75001C13.6463 3.74839 13.3155 3.93872 13.1355 4.24924L12 6.20907L10.8645 4.24924ZM14.4628 10.4579L16.6378 14.2134H19.9962C20.7656 14.2112 21.2488 15.0482 20.866 15.72C20.6873 16.0335 20.3552 16.2265 19.9962 16.2255H17.8052L19.2605 18.7366C19.6483 19.4057 19.171 20.2465 18.4014 20.25C18.0443 20.2516 17.7134 20.0613 17.5334 19.7508L15.2248 15.7667C15.2076 15.7396 15.1915 15.7117 15.1769 15.683L12.7356 11.472C12.3479 10.8029 12.8251 9.9621 13.5948 9.95864C13.952 9.95702 14.2828 10.1474 14.4628 10.4579ZM7.26623 18.3712C7.65406 17.7021 7.17673 16.8613 6.40712 16.8578C6.04997 16.8562 5.71906 17.0465 5.53907 17.3571L4.73947 18.7366C4.35165 19.4057 4.82897 20.2465 5.59858 20.25C5.95573 20.2516 6.28665 20.0613 6.46664 19.7508L7.26623 18.3712Z" fill="black"/>
</svg>
