<svg width="24" height="24" viewBox="0 0 24 24" fill="none" xmlns="http://www.w3.org/2000/svg">
<path d="M12.111 8.17182C11.42 8.17182 10.3504 7.36342 9.22396 7.39264C7.73786 7.41212 6.37481 8.27896 5.60809 9.65226C4.0652 12.4086 5.21054 16.4798 6.71557 18.72C7.45389 19.8108 8.32473 21.0381 9.47953 20.9991C10.587 20.9504 11.0035 20.2589 12.3476 20.2589C13.6823 20.2589 14.0609 20.9991 15.2346 20.9699C16.4273 20.9504 17.1845 19.8595 17.9134 18.759C18.7558 17.4928 19.1061 16.2656 19.125 16.1974C19.0966 16.1876 16.8059 15.2818 16.7775 12.5547C16.7586 10.2756 18.5855 9.18475 18.6707 9.13605C17.6294 7.56795 16.0297 7.39264 15.4713 7.35368C14.0136 7.2368 12.7925 8.17182 12.111 8.17182ZM14.572 5.87323C15.1873 5.11353 15.5943 4.0519 15.4807 3C14.6004 3.03896 13.5403 3.60387 12.9061 4.36357C12.3381 5.03561 11.8459 6.11673 11.9785 7.14914C12.9534 7.22706 13.9568 6.63293 14.572 5.87323Z" fill="black"/>
</svg>
