<svg width="24" height="24" viewBox="0 0 24 24" fill="none" xmlns="http://www.w3.org/2000/svg">
<path d="M20.9528 9.28356C21.0632 8.72741 20.9804 8.14263 20.7006 7.65191C20.3853 7.09985 19.8729 6.72771 19.2699 6.60094C19.132 6.57232 18.9861 6.55596 18.8482 6.55596H18.8403C17.8077 6.55596 16.9407 7.32476 16.7357 8.37573C16.6135 8.99322 16.3771 9.59026 16.046 10.1423C16.0271 10.1729 16.0008 10.1976 15.9696 10.2141C15.9385 10.2306 15.9037 10.2382 15.8688 10.2361C15.8339 10.234 15.8002 10.2224 15.771 10.2023C15.7419 10.1822 15.7185 10.1545 15.7031 10.1219L13.5591 5.46001C13.2872 4.86706 12.7985 4.40087 12.1915 4.21685C11.151 3.89788 10.079 4.43767 9.63761 5.40276L7.42265 10.2364C7.36354 10.3632 7.19012 10.3591 7.13889 10.2323V10.2282C6.97921 9.8142 6.70333 9.45951 6.34704 9.21014C5.99075 8.96076 5.57047 8.8282 5.1407 8.82964C4.85693 8.82964 4.57711 8.8869 4.30911 9.0014C3.20557 9.47985 2.71292 10.8293 3.1701 11.9744C3.58787 13.009 4.27363 13.9863 5.16435 14.8287C5.22741 14.8901 5.24711 14.9841 5.21164 15.0659L4.49434 16.6281C3.98987 17.7322 4.39581 19.0776 5.44417 19.6296C5.75158 19.7891 6.0787 19.8709 6.41765 19.8709C7.2453 19.8709 8.00989 19.372 8.3646 18.595L8.98337 17.2496C9.02278 17.1597 9.12131 17.1147 9.21196 17.1433C9.96473 17.356 10.7214 17.4705 11.4663 17.4705C12.3058 17.4705 13.1335 17.3396 13.9335 17.0983C13.9781 17.0847 14.026 17.0879 14.0685 17.1074C14.1111 17.1269 14.1456 17.1613 14.166 17.2046L14.7769 18.5378C15.1395 19.3311 15.8962 19.8709 16.7397 19.875C17.0825 19.875 17.4136 19.7973 17.725 19.6337C18.7773 19.0817 19.1793 17.7322 18.6748 16.624L17.9062 14.9473C17.8708 14.8655 17.8865 14.7715 17.9496 14.7101C19.4394 13.2707 20.539 11.3855 20.9528 9.28356ZM7.65913 18.2393C7.54739 18.4827 7.37148 18.6884 7.15177 18.8324C6.93206 18.9764 6.67753 19.0529 6.41765 19.053C6.21271 19.053 6.00382 19.004 5.8107 18.9058C5.13282 18.5582 4.87664 17.6831 5.20376 16.9756L5.79888 15.6793C5.85011 15.5648 5.992 15.5239 6.08659 15.5975C6.21271 15.6916 6.34277 15.7816 6.47677 15.8715C7.00095 16.2191 7.54877 16.5135 8.11236 16.7548C8.21878 16.7998 8.26607 16.9225 8.21878 17.0288L7.65913 18.2393ZM11.4663 16.6485C8.30942 16.6485 4.97517 14.428 3.87163 11.5941C3.73533 11.2443 3.73847 10.8526 3.88037 10.5053C4.02227 10.1579 4.29131 9.88319 4.62834 9.74157C4.79781 9.67205 4.97123 9.63525 5.1407 9.63525C5.68458 9.63525 6.19694 9.97058 6.41371 10.5267C7.10342 12.3015 9.4169 13.8023 11.4663 13.8023C11.7816 13.8023 12.0969 13.7696 12.4083 13.7123C12.495 13.696 12.5817 13.741 12.6211 13.8228L13.6537 16.0801C13.7049 16.1946 13.6458 16.3295 13.5315 16.3622C12.8576 16.5463 12.1679 16.6485 11.4663 16.6485ZM11.017 12.8127L11.4939 11.774C11.5333 11.6922 11.6476 11.6922 11.687 11.774L12.1521 12.7881C12.1836 12.8536 12.1403 12.9354 12.0733 12.9476C11.8723 12.9763 11.6713 12.9926 11.4742 12.9926C11.352 12.9926 11.2299 12.9844 11.1077 12.9722C11.0249 12.9599 10.9855 12.8781 11.017 12.8127ZM17.3624 18.9017C17.1991 18.9853 17.0214 19.0344 16.8396 19.0461C16.6579 19.0578 16.4757 19.0319 16.3037 18.9699C16.1317 18.9078 15.9733 18.8109 15.8377 18.6848C15.7021 18.5587 15.5921 18.4058 15.5139 18.2352L11.7737 10.0769C11.6989 9.91332 11.4742 9.91332 11.4033 10.0769L10.2446 12.6082C10.2012 12.7023 10.0987 12.7472 10.0041 12.7145C9.2159 12.4324 8.46707 11.9539 7.91136 11.3773C7.88309 11.3478 7.86446 11.3098 7.85809 11.2687C7.85173 11.2277 7.85795 11.1855 7.87589 11.1483L10.3825 5.67675C10.4692 5.48455 10.6032 5.3128 10.7727 5.1942C11.5609 4.6585 12.4832 4.99383 12.826 5.74218L17.9693 16.9675C18.2925 17.679 18.0402 18.5541 17.3624 18.9017ZM16.2785 11.3937C16.2628 11.3595 16.2567 11.3214 16.2608 11.2838C16.265 11.2462 16.2794 11.2106 16.3022 11.181C16.8894 10.4 17.319 9.48803 17.5042 8.51885C17.6343 7.84411 18.2058 7.37383 18.8482 7.37383C18.9586 7.37383 19.0689 7.3861 19.1832 7.41473C19.9123 7.60284 20.334 8.38799 20.1803 9.1527C19.8177 10.9438 18.9191 12.5673 17.6934 13.8391C17.5949 13.9413 17.4333 13.9127 17.3742 13.7859L16.2785 11.3937Z" fill="black"/>
</svg>
