<svg width="24" height="24" viewBox="0 0 24 24" fill="none" xmlns="http://www.w3.org/2000/svg">
<path fill-rule="evenodd" clip-rule="evenodd" d="M6.6 10.9195C6.6 6.8858 11.1 4.36472 14.7 6.38155C16.3707 7.31764 17.4 9.04745 17.4 10.9195V14.2941L16.6016 15.2163L15.7616 13.0443C15.5989 12.6248 15.0292 12.5336 14.7363 12.88C14.6974 12.926 14.666 12.9774 14.6432 13.0326L13.6944 15.3328L12.5768 11.5359C12.4496 11.1051 11.8894 10.9694 11.5685 11.2917C11.5002 11.3603 11.4503 11.4442 11.4232 11.5359L10.3056 15.332L9.35679 13.0326C9.18482 12.6167 8.61329 12.5373 8.32806 12.8898C8.29018 12.9365 8.25995 12.9887 8.23837 13.0443L7.39837 15.2163L6.6 14.2941V10.9195ZM6.6 16.1036V18.9162C6.6 19.3585 6.11189 19.6393 5.71202 19.427C4.03982 18.543 2.99947 16.8428 3 14.9951C2.99901 13.2718 3.90505 11.6674 5.40237 10.741C5.53936 5.81262 11.123 2.87634 15.4529 5.45564C17.3545 6.5883 18.5375 8.57662 18.5976 10.741C20.0949 11.6674 21.001 13.2718 21 14.9951C21.0008 16.8431 19.9604 18.5437 18.288 19.4277C17.8878 19.6402 17.3994 19.3588 17.4 18.9162V16.1036L16.8592 16.7285C16.5636 17.0692 15.9994 16.9748 15.8384 16.5578L15.1824 14.86L14.1568 17.3465C13.9847 17.7624 13.4131 17.8416 13.128 17.489C13.0802 17.4298 13.0446 17.3622 13.0232 17.2898L12 13.8151L10.9768 17.2898C10.8497 17.7207 10.2895 17.8565 9.9685 17.5342C9.91462 17.48 9.87207 17.4163 9.84321 17.3465L8.81839 14.86L8.16237 16.5578C8.00166 16.9756 7.43633 17.0701 7.14084 16.7285L6.6 16.1036Z" fill="black"/>
</svg>
