<svg width="24" height="24" viewBox="0 0 24 24" fill="none" xmlns="http://www.w3.org/2000/svg">
<path d="M12 3C16.9706 3 21 7.02944 21 12C21 16.9706 16.9706 21 12 21C7.02944 21 3 16.9706 3 12C3 7.02944 7.02944 3 12 3ZM16.2803 10.3447C15.9874 10.0518 15.5126 10.0518 15.2197 10.3447L12 13.5645L8.78027 10.3447C8.48738 10.0518 8.01262 10.0518 7.71973 10.3447C7.42684 10.6376 7.42684 11.1124 7.71973 11.4053L11.4697 15.1553C11.7626 15.4482 12.2374 15.4482 12.5303 15.1553L16.2803 11.4053C16.5732 11.1124 16.5732 10.6376 16.2803 10.3447Z" fill="black"/>
</svg>
