<svg width="24" height="24" viewBox="0 0 24 24" fill="none" xmlns="http://www.w3.org/2000/svg">
<path d="M12 3C16.9706 3 21 7.02944 21 12C21 16.9706 16.9706 21 12 21C7.02944 21 3 16.9706 3 12C3 7.02944 7.02944 3 12 3ZM12 4.5C7.85786 4.5 4.5 7.85786 4.5 12C4.5 16.1421 7.85786 19.5 12 19.5C16.1421 19.5 19.5 16.1421 19.5 12C19.5 7.85786 16.1421 4.5 12 4.5ZM10.3447 7.71973C10.6376 7.42684 11.1124 7.42684 11.4053 7.71973L15.1553 11.4697C15.4482 11.7626 15.4482 12.2374 15.1553 12.5303L11.4053 16.2803C11.1124 16.5732 10.6376 16.5732 10.3447 16.2803C10.0518 15.9874 10.0518 15.5126 10.3447 15.2197L13.5645 12L10.3447 8.78027C10.0518 8.48738 10.0518 8.01262 10.3447 7.71973Z" fill="black"/>
</svg>
