<svg width="24" height="24" viewBox="0 0 24 24" fill="none" xmlns="http://www.w3.org/2000/svg">
<path d="M18.2477 6.3806C17.0651 5.84482 15.8166 5.46471 14.5342 5.25C14.3587 5.56044 14.1999 5.87985 14.0585 6.20688C12.6924 6.00318 11.3033 6.00318 9.93721 6.20688C9.79571 5.87988 9.63693 5.56048 9.46151 5.25C8.17825 5.46653 6.92895 5.84753 5.74514 6.38341C3.39498 9.82425 2.75789 13.1796 3.07644 16.4874C4.45275 17.4937 5.99324 18.259 7.63094 18.75C7.9997 18.2592 8.326 17.7385 8.60639 17.1935C8.07383 16.9967 7.55982 16.7538 7.07029 16.4678C7.19913 16.3753 7.32513 16.28 7.44689 16.1876C8.87128 16.8505 10.4259 17.1941 12 17.1941C13.574 17.1941 15.1287 16.8505 16.5531 16.1876C16.6762 16.287 16.8022 16.3823 16.9296 16.4678C16.4392 16.7543 15.9242 16.9976 15.3907 17.1949C15.6708 17.7397 15.9971 18.2599 16.3662 18.75C18.0053 18.2609 19.5469 17.496 20.9235 16.4888C21.2973 12.6529 20.285 9.3283 18.2477 6.3806ZM9.00988 14.4531C8.1222 14.4531 7.38884 13.656 7.38884 12.6753C7.38884 11.6946 8.09672 10.8904 9.00705 10.8904C9.91739 10.8904 10.6451 11.6946 10.6295 12.6753C10.6139 13.656 9.91456 14.4531 9.00988 14.4531ZM14.9901 14.4531C14.101 14.4531 13.3704 13.656 13.3704 12.6753C13.3704 11.6946 14.0783 10.8904 14.9901 10.8904C15.9018 10.8904 16.6238 11.6946 16.6083 12.6753C16.5927 13.656 15.8947 14.4531 14.9901 14.4531Z" fill="black"/>
</svg>
