<svg width="24" height="24" viewBox="0 0 24 24" fill="none" xmlns="http://www.w3.org/2000/svg">
<path d="M12 16.875C12.6213 16.875 13.125 17.3787 13.125 18C13.125 18.6213 12.6213 19.125 12 19.125C11.3787 19.125 10.875 18.6213 10.875 18C10.875 17.3787 11.3787 16.875 12 16.875ZM20.25 11.25C20.6642 11.25 21 11.5858 21 12C21 12.4142 20.6642 12.75 20.25 12.75H3.75C3.33579 12.75 3 12.4142 3 12C3 11.5858 3.33579 11.25 3.75 11.25H20.25ZM12 4.875C12.6213 4.875 13.125 5.37868 13.125 6C13.125 6.62132 12.6213 7.125 12 7.125C11.3787 7.125 10.875 6.62132 10.875 6C10.875 5.37868 11.3787 4.875 12 4.875Z" fill="black"/>
</svg>
