<svg width="24" height="24" viewBox="0 0 24 24" fill="none" xmlns="http://www.w3.org/2000/svg">
<path d="M5.625 10.875C6.24632 10.875 6.75 11.3787 6.75 12C6.75 12.6213 6.24632 13.125 5.625 13.125C5.00368 13.125 4.5 12.6213 4.5 12C4.5 11.3787 5.00368 10.875 5.625 10.875ZM12 10.875C12.6213 10.875 13.125 11.3787 13.125 12C13.125 12.6213 12.6213 13.125 12 13.125C11.3787 13.125 10.875 12.6213 10.875 12C10.875 11.3787 11.3787 10.875 12 10.875ZM18.375 10.875C18.9963 10.875 19.5 11.3787 19.5 12C19.5 12.6213 18.9963 13.125 18.375 13.125C17.7537 13.125 17.25 12.6213 17.25 12C17.25 11.3787 17.7537 10.875 18.375 10.875Z" fill="black"/>
</svg>
