<svg width="24" height="24" viewBox="0 0 24 24" fill="none" xmlns="http://www.w3.org/2000/svg">
<path fill-rule="evenodd" clip-rule="evenodd" d="M15.6469 20.2309C15.1371 17.7174 14.4728 15.3848 13.6048 13.17C10.8132 13.8777 8.71878 15.7391 6.33469 18.993C7.93592 20.2943 9.9371 21.0032 12.0004 21C13.2988 21 14.5325 20.7251 15.6469 20.2309ZM16.7759 19.6295C17.8778 18.9397 18.8173 18.0193 19.5296 16.9318C20.242 15.8443 20.7104 14.6153 20.9026 13.3295C18.4662 12.8485 16.5018 12.7225 14.8312 12.9385C15.6444 15.0518 16.2793 17.2666 16.7759 19.6295ZM21 12.0982V12C21 9.831 20.2326 7.84119 18.9546 6.28664C17.455 8.0171 15.7516 9.21082 13.5671 10.0298C13.8453 10.6025 14.1087 11.1802 14.3575 11.766C16.2474 11.4723 18.4081 11.5966 21 12.0982ZM18.1087 5.3891C16.4473 3.84991 14.2651 2.9964 12.0004 3.00001C11.1206 2.99917 10.2454 3.12735 9.40275 3.38047C10.7618 5.12242 11.9676 6.97871 13.0067 8.92855C15.1012 8.16601 16.6933 7.05082 18.1087 5.3891ZM8.20252 3.83865C6.89009 4.45047 5.7444 5.36952 4.86242 6.51799C3.98045 7.66647 3.38817 9.01055 3.13573 10.4365C6.7904 10.2614 9.57865 9.93737 11.8187 9.309C10.7758 7.38318 9.56577 5.55269 8.20252 3.83865ZM3.00728 11.6711C6.90003 11.4911 9.92882 11.1466 12.3914 10.4209C12.6533 10.9495 12.8987 11.4845 13.1327 12.0245C10.0614 12.8566 7.80654 14.9307 5.43064 18.1511C4.61767 17.2853 3.98474 16.2666 3.5686 15.1543C3.15245 14.0419 2.96138 12.8579 3.00647 11.6711H3.00728Z" fill="black"/>
</svg>
