<svg width="24" height="24" viewBox="0 0 24 24" fill="none" xmlns="http://www.w3.org/2000/svg">
<path fill-rule="evenodd" clip-rule="evenodd" d="M5.36842 3C5.03865 3 4.72238 3.1293 4.48919 3.35946C4.256 3.58962 4.125 3.90178 4.125 4.22727V17.3181C4.12499 17.3973 4.14824 17.4747 4.19194 17.5411C4.23564 17.6075 4.29791 17.6599 4.3712 17.692L11.8317 20.9648C11.8847 20.988 11.942 21 12 21C12.058 21 12.1153 20.988 12.1683 20.9648L19.6288 17.692C19.7021 17.6599 19.7644 17.6075 19.8081 17.5411C19.8518 17.4747 19.875 17.3973 19.875 17.3181V4.22727C19.875 4.0661 19.8428 3.90651 19.7803 3.75761C19.7179 3.60871 19.6263 3.47342 19.5108 3.35946C19.3953 3.2455 19.2583 3.1551 19.1074 3.09342C18.9566 3.03174 18.7949 3 18.6316 3H5.36842ZM13.8651 12.6136H12.6217V5.65908H13.8651V12.6136ZM8.68421 17.3181L12 18.9545L15.3158 17.3181H8.68421ZM8.68421 5.65908H6.40461V12.6136H8.68421V11.3863H7.64803V9.74998H8.68421V8.52271H7.64803V6.88635H8.68421V5.65908ZM10.7566 5.65908H9.30592V12.6136H10.5493V10.5682H10.7566C11.1413 10.5682 11.5103 10.4173 11.7823 10.1488C12.0544 9.88027 12.2072 9.51609 12.2072 9.13635V7.0909C12.2072 6.71116 12.0544 6.34697 11.7823 6.07845C11.5103 5.80993 11.1413 5.65908 10.7566 5.65908ZM10.7566 9.34089H10.5493V6.88635H10.7566C10.8115 6.88635 10.8643 6.9079 10.9031 6.94626C10.942 6.98462 10.9638 7.03665 10.9638 7.0909V9.13635C10.9638 9.19059 10.942 9.24262 10.9031 9.28098C10.8643 9.31934 10.8115 9.34089 10.7566 9.34089ZM14.2796 6.68181C14.2796 6.11726 14.7438 5.65908 15.3158 5.65908H16.5592C17.1312 5.65908 17.5954 6.11726 17.5954 6.68181V8.31817H16.352V6.88635H15.523V11.3863H16.352V9.95453H17.5954V11.5909C17.5954 12.1554 17.1312 12.6136 16.5592 12.6136H15.3158C14.7438 12.6136 14.2796 12.1554 14.2796 11.5909V6.68181ZM6.61184 15.4772H16.5592V14.25H6.61184V15.4772Z" fill="black"/>
</svg>
