<svg width="24" height="24" viewBox="0 0 24 24" fill="none" xmlns="http://www.w3.org/2000/svg">
<path fill-rule="evenodd" clip-rule="evenodd" d="M8.89145 3.0548C8.85478 3.07561 8.82151 3.10179 8.79282 3.13255L4.23363 8.04161C4.21331 8.06365 4.19556 8.08783 4.18059 8.11362H7.85524C8.42724 8.11362 8.89145 7.65543 8.89145 7.09094V3.0548ZM4.125 9.34094V11.1818C4.125 14.1191 6.53726 16.5002 9.51314 16.5H9.79499C10.5386 16.4998 11.225 16.1063 11.5938 15.4691L12.4642 13.9653C12.8942 14.4725 13.4658 14.8436 14.108 15.0321C15.5031 15.4601 16.5592 16.3577 16.5592 17.5906C16.5592 18.1184 16.1265 18.5454 15.5918 18.5454H14.694C14.5345 18.5454 14.4348 18.375 14.5146 18.2386C14.5516 18.1753 14.6201 18.1364 14.694 18.1364C15.4917 18.1364 15.9902 17.2841 15.5915 16.6022C15.4064 16.2859 15.0643 16.0909 14.694 16.0909H14.3484C13.0514 16.0909 12 17.1286 12 18.4088V18.5454C12 19.9011 13.1134 21 14.4869 21H16.1448C18.2048 21 19.875 19.3516 19.875 17.3182V11.5909C19.875 10.1607 19.6801 8.66755 19.4804 7.50651C19.2235 6.02319 17.9999 4.9448 16.5252 4.72064L13.5568 4.27064L13.4109 3.83946C13.2418 3.33849 12.7671 3.00038 12.2321 3H10.1348V7.09087C10.1349 8.33357 9.11429 9.34094 7.85524 9.34094H4.125ZM15.523 11.1818C15.523 10.8429 15.8013 10.5682 16.1448 10.5682H16.9736C17.4523 10.5682 17.7514 11.0796 17.512 11.4886C17.401 11.6785 17.1958 11.7954 16.9736 11.7954H16.1448C15.8013 11.7954 15.523 11.5208 15.523 11.1818Z" fill="black"/>
</svg>
