<svg width="24" height="24" viewBox="0 0 24 24" fill="none" xmlns="http://www.w3.org/2000/svg">
<path fill-rule="evenodd" clip-rule="evenodd" d="M6 6.3677C6 4.50777 7.44584 3 9.22938 3H14.7706C16.5542 3 18 4.50777 18 6.3677C18 7.54543 17.4203 8.58196 16.5422 9.18389C17.4203 9.78582 18 10.8223 18 12.0001C18 13.86 16.5542 15.3678 14.7706 15.3678H14.7005C13.8643 15.3678 13.1024 15.0364 12.5289 14.4927V17.5957C12.5289 19.4804 11.0453 21 9.24681 21C7.4677 21 6 19.4968 6 17.6323C6 16.4546 6.57967 15.4181 7.45769 14.8162C6.57967 14.2142 6 13.1777 6 12.0001C6 10.8223 6.57972 9.78582 7.4578 9.18389C6.57971 8.58196 6 7.54543 6 6.3677ZM11.4711 9.73549V14.2646H9.22938C9.22479 14.2646 9.22019 14.2646 9.2156 14.2646C8.02261 14.2569 7.05781 13.246 7.05781 12.0001C7.05781 10.7494 8.03005 9.73549 9.22938 9.73549H11.4711ZM9.2156 15.3678C8.02262 15.3755 7.05781 16.3864 7.05781 17.6323C7.05781 18.8784 8.04305 19.8969 9.24681 19.8969C10.4699 19.8969 11.4711 18.862 11.4711 17.5957V15.3678H9.22938C9.22479 15.3678 9.22019 15.3678 9.2156 15.3678ZM12.5289 12.0001C12.5289 13.2508 13.5011 14.2647 14.7005 14.2647H14.7706C15.9699 14.2647 16.9422 13.2508 16.9422 12.0001C16.9422 10.7494 15.9699 9.73549 14.7706 9.73549H14.7005C13.5011 9.73549 12.5289 10.7494 12.5289 12.0001ZM12.5289 8.63229H14.7706C15.9699 8.63229 16.9422 7.6184 16.9422 6.3677C16.9422 5.11701 15.9699 4.10313 14.7706 4.10313H12.5289V8.63229ZM11.4711 4.10313H9.22938C8.03006 4.10313 7.05781 5.11701 7.05781 6.3677C7.05781 7.6184 8.03006 8.63229 9.22938 8.63229H11.4711V4.10313Z" fill="black"/>
</svg>
