<svg width="24" height="24" viewBox="0 0 24 24" fill="none" xmlns="http://www.w3.org/2000/svg">
<path d="M10.6117 16.1568C8.29122 15.8659 6.65635 14.1426 6.65635 11.9102C6.65635 11.0028 6.97252 10.0228 7.5 9.36995C7.27148 8.77125 7.3067 7.50033 7.57044 6.97435C8.27322 6.88386 9.22252 7.26521 9.78522 7.79039C10.4528 7.57305 11.1563 7.46397 12.018 7.46397C12.8789 7.46397 13.5824 7.57305 14.2148 7.77261C14.7595 7.26441 15.7268 6.88386 16.4296 6.97435C16.6761 7.46397 16.7113 8.73489 16.482 9.35136C17.0455 10.0414 17.3437 10.9673 17.3437 11.9102C17.3437 14.1426 15.7088 15.8304 13.3539 16.139C13.951 16.5382 14.3557 17.4091 14.3557 18.407V20.2944C14.3557 20.8389 14.7947 21.1476 15.3222 20.9294C18.5043 19.6771 21 16.3927 21 12.3279C21 7.19169 16.957 3 11.9828 3C7.00696 3 3 7.19169 3 12.3279C3 16.3564 5.47852 19.6965 8.8187 20.948C9.29296 21.1298 9.75 20.8026 9.75 20.3129V18.8602C9.48256 18.9756 9.19618 19.0371 8.90635 19.0412C7.74574 19.0412 7.06017 18.3884 6.5687 17.1724C6.37539 16.682 6.16409 16.3919 5.75948 16.3378C5.54817 16.3192 5.47852 16.2287 5.47852 16.1196C5.47852 15.9015 5.8307 15.7391 6.1813 15.7391C6.69157 15.7391 7.13061 16.0655 7.58765 16.7369C7.93983 17.2629 8.30843 17.4988 8.74826 17.4988C9.1873 17.4988 9.46826 17.3356 9.87287 16.9179C10.1718 16.6101 10.4003 16.3386 10.6117 16.1568Z" fill="black"/>
</svg>
