<svg width="24" height="24" viewBox="0 0 24 24" fill="none" xmlns="http://www.w3.org/2000/svg">
<path d="M9.89767 16.3608C9.96288 16.4738 10.0567 16.5677 10.1697 16.6329C10.2829 16.6983 10.4113 16.7335 10.542 16.7335C10.6727 16.7335 10.8011 16.6991 10.9143 16.6338L14.6329 14.487C14.7461 14.4218 14.8401 14.3279 14.9054 14.2148C14.9708 14.1017 15.0052 13.9734 15.0052 13.8428C15.0052 13.7122 14.9708 13.5839 14.9054 13.4708C14.8401 13.3577 14.7461 13.2638 14.6329 13.1985L10.9143 11.0518C10.8012 10.9864 10.6728 10.952 10.5421 10.9519C10.4115 10.9519 10.2831 10.9863 10.17 11.0517C10.0568 11.117 9.96289 11.211 9.89764 11.3242C9.83239 11.4374 9.79812 11.5658 9.79827 11.6965V15.9891C9.79818 16.1196 9.83246 16.2478 9.89767 16.3608Z" fill="black"/>
<path fill-rule="evenodd" clip-rule="evenodd" d="M6.28099 3.43158C7.02584 3.15021 7.95046 3 9.17891 3H14.8211C16.0495 3 16.9742 3.15021 17.719 3.43158C18.4771 3.71794 18.9981 4.12116 19.4363 4.54439L19.456 4.56411C19.8796 5.0021 20.2827 5.52299 20.5689 6.28097C20.85 7.02565 21 7.95015 21 9.17835V14.8217C21 16.0502 20.85 16.9748 20.5688 17.7194C20.2826 18.4773 19.8795 18.998 19.456 19.4359L19.4363 19.4556C18.9981 19.8788 18.4771 20.2821 17.719 20.5684C16.9742 20.8498 16.0495 21 14.8211 21H9.17891C7.95046 21 7.02584 20.8498 6.28099 20.5684C5.52292 20.2821 5.00193 19.8788 4.56374 19.4556L4.54401 19.4359C4.12054 18.998 3.71737 18.4773 3.43115 17.7194C3.14997 16.9748 3 16.0502 3 14.8217V9.17835C3 7.95015 3.14998 7.02565 3.43114 6.28097C3.71732 5.52299 4.12044 5.0021 4.54401 4.56411L4.56374 4.54439C5.00193 4.12116 5.52292 3.71794 6.28099 3.43158ZM5.71066 5.71154C5.39588 6.03855 5.14526 6.37358 4.96204 6.85886C4.93443 6.93201 4.90796 7.0096 4.8829 7.09217H8.9555L7.62112 4.75686C7.321 4.81158 7.07147 4.88205 6.85929 4.96221C6.37377 5.14561 6.03836 5.39648 5.71066 5.71154ZM4.63636 9.17835C4.63636 9.02059 4.63914 8.87077 4.64446 8.72839H10.3508C10.361 8.72858 10.3711 8.72858 10.3812 8.72839H15.5545C15.5646 8.72857 15.5747 8.72857 15.5848 8.72839H19.3555C19.3609 8.87077 19.3636 9.02059 19.3636 9.17835V14.8217C19.3636 15.9239 19.2281 16.638 19.038 17.1414C18.8548 17.6265 18.6042 17.9614 18.2893 18.2885C17.9616 18.6035 17.6262 18.8544 17.1407 19.0378C16.637 19.2281 15.9228 19.3638 14.8211 19.3638H9.17891C8.07717 19.3638 7.36298 19.2281 6.85929 19.0378C6.37376 18.8544 6.03836 18.6035 5.71066 18.2884C5.39578 17.9613 5.14521 17.6265 4.96203 17.1414C4.77194 16.638 4.63636 15.9239 4.63636 14.8217V9.17835ZM19.038 6.85886C19.0656 6.93201 19.092 7.0096 19.1171 7.09217H16.0437L14.64 4.63621H14.8211C15.9228 4.63621 16.637 4.77194 17.1407 4.96221C17.6262 5.14561 17.9616 5.39647 18.2893 5.71153C18.6041 6.03854 18.8547 6.37357 19.038 6.85886ZM9.4368 4.63621H12.7553L14.159 7.09217H10.8401L9.4368 4.63621Z" fill="black"/>
</svg>
