<svg width="24" height="24" viewBox="0 0 24 24" fill="none" xmlns="http://www.w3.org/2000/svg">
<path fill-rule="evenodd" clip-rule="evenodd" d="M16.5279 3.23153C18.5684 3.52686 20.2897 5.05101 20.5554 6.98502C20.6712 8.13533 20.6139 9.86367 20.586 10.7038C20.5791 10.9129 20.574 11.067 20.5738 11.1435C20.5738 11.2564 20.5571 12.2872 20.5504 12.396C20.3716 15.1596 18.6118 16.251 16.7627 16.5987C16.7428 16.6045 16.7202 16.6088 16.6971 16.6132C16.6912 16.6144 16.6852 16.6155 16.6791 16.6167C15.5068 16.8408 14.2509 16.9006 13.0594 16.9333C12.7745 16.9406 12.4904 16.9406 12.2054 16.9406C11.0207 16.9409 9.84014 16.8036 8.68848 16.5316C8.68236 16.53 8.67599 16.5299 8.66982 16.5312C8.66365 16.5326 8.65791 16.5353 8.65302 16.5392C8.64813 16.5431 8.64425 16.548 8.64171 16.5537C8.63915 16.5593 8.63799 16.5655 8.63834 16.5717C8.67091 16.9388 8.75237 17.3002 8.88064 17.6467C9.04026 18.0475 9.59758 19.0105 11.6698 19.0105C12.874 19.0126 14.0741 18.8753 15.2453 18.6014C15.2512 18.6001 15.2574 18.6 15.2634 18.6013C15.2693 18.6026 15.2749 18.6052 15.2797 18.6089C15.2845 18.6126 15.2884 18.6173 15.2912 18.6226C15.2939 18.628 15.2953 18.6339 15.2954 18.6399V19.9963C15.2952 20.0027 15.2935 20.0089 15.2905 20.0146C15.2874 20.0203 15.2831 20.0252 15.2779 20.029C14.9117 20.2889 14.4193 20.4417 13.9881 20.5755C13.9686 20.5815 13.9493 20.5875 13.9301 20.5935C13.734 20.6541 13.5354 20.7072 13.3343 20.753C11.5063 21.1607 9.59849 21.0622 7.82447 20.4683C6.16752 19.8989 4.4763 18.5032 4.05851 16.8261C3.83539 15.918 3.67819 14.9956 3.58807 14.0658C3.49339 13.049 3.46175 12.0305 3.43007 11.0105C3.41814 10.6264 3.4062 10.242 3.39088 9.85743C3.35161 8.87732 3.37417 7.80887 3.58557 6.84512C4.02509 4.8882 5.83663 3.51868 7.82031 3.23153C7.86108 3.22562 7.90611 3.21786 7.95885 3.20877C8.35144 3.14115 9.17089 3 11.8353 3H11.8578C14.8793 3 16.1836 3.18162 16.5279 3.23153ZM17.6258 13.9627V9.15789C17.6264 8.17561 17.371 7.39569 16.8596 6.81809C16.3299 6.24132 15.6372 5.94516 14.7782 5.94516C13.7847 5.94516 13.0327 6.31986 12.5313 7.06843L12.0467 7.86364L11.5629 7.06843C11.0615 6.31986 10.3095 5.94516 9.31431 5.94516C8.45451 5.94516 7.7618 6.24132 7.23372 6.81809C6.72177 7.39623 6.46581 8.17616 6.46581 9.15789V13.9627H8.40937V9.29943C8.40937 8.3177 8.83135 7.817 9.67614 7.817C10.6103 7.817 11.0791 8.40932 11.0791 9.57922V12.1317H13.0118V9.57922C13.0118 8.40932 13.4797 7.817 14.4139 7.817C15.2637 7.817 15.6814 8.3177 15.6814 9.29943V13.9627H17.6258Z" fill="black"/>
</svg>
