<svg width="24" height="24" viewBox="0 0 24 24" fill="none" xmlns="http://www.w3.org/2000/svg">
<path d="M13.1531 12.0001C13.1531 14.796 10.8802 17.0625 8.07663 17.0625C5.27305 17.0625 3 14.7955 3 12.0001C3 9.2047 5.27287 6.9375 8.07663 6.9375C10.8804 6.9375 13.1531 9.20418 13.1531 12.0001ZM18.7221 12.0001C18.7221 14.6318 17.5857 16.7661 16.1838 16.7661C14.7819 16.7661 13.6455 14.6318 13.6455 12.0001C13.6455 9.36835 14.7818 7.23405 16.1836 7.23405C17.5855 7.23405 18.722 9.36766 18.722 12.0001M21 12.0001C21 14.3575 20.6004 16.2697 20.1073 16.2697C19.6142 16.2697 19.2147 14.358 19.2147 12.0001C19.2147 9.64218 19.6143 7.73047 20.1073 7.73047C20.6002 7.73047 21 9.64201 21 12.0001Z" fill="black"/>
</svg>
