<svg width="24" height="24" viewBox="0 0 24 24" fill="none" xmlns="http://www.w3.org/2000/svg">
<path d="M15.9184 6.375C14.4425 6.375 13.2887 7.42053 12.2443 8.74867C10.809 7.02992 9.60873 6.375 8.17232 6.375C5.24381 6.375 3 9.95948 3 13.7534C3 16.1276 4.22122 17.625 6.26673 17.625C7.73896 17.625 8.79778 16.9722 10.6801 13.8776C10.6801 13.8776 11.4648 12.5744 12.0045 11.6767C12.1937 11.9639 12.3929 12.2734 12.6022 12.6052L13.4849 14.0017C15.2043 16.7079 16.1623 17.625 17.8983 17.625C19.891 17.625 21 16.1071 21 13.6836C21 9.71121 18.7056 6.375 15.9184 6.375ZM9.24473 13.0397C7.71861 15.2897 7.19065 15.794 6.34097 15.794C5.46655 15.794 4.94684 15.072 4.94684 13.7845C4.94684 11.0302 6.40697 8.21379 8.14757 8.21379C9.09016 8.21379 9.87785 8.72578 11.0844 10.3503C9.93873 12.0031 9.24473 13.0397 9.24473 13.0397ZM15.0045 12.7564L13.9492 11.101C13.6636 10.6641 13.3891 10.262 13.1258 9.89465C14.0769 8.51388 14.8615 7.82587 15.7947 7.82587C17.7333 7.82587 19.2841 10.5103 19.2841 13.8078C19.2841 15.0647 18.8464 15.794 17.9395 15.794C17.0703 15.794 16.655 15.254 15.0045 12.7564Z" fill="black"/>
</svg>
