<svg width="24" height="24" viewBox="0 0 24 24" fill="none" xmlns="http://www.w3.org/2000/svg">
<path d="M6.75 6.00008C6.75 5.53632 6.77944 5.07878 6.83423 4.62899C4.51386 6.25816 3 8.95345 3 12.0001C3.00004 16.9706 7.02946 21.0001 12 21.0001V22.5001L11.729 22.4964C6.14534 22.355 1.64516 17.8547 1.50366 12.2711L1.5 12.0001C1.5 7.76212 4.01082 4.11029 7.62598 2.4515C8.20853 2.18435 8.76427 2.80229 8.59497 3.42049L8.51587 3.7303C8.34209 4.45856 8.25 5.21859 8.25 6.00008L8.25293 6.2513C8.3841 11.4362 12.5632 15.6156 17.748 15.7472L18 15.7501C18.893 15.7501 19.7581 15.6296 20.5796 15.4044C21.1977 15.235 21.8151 15.7908 21.5479 16.3734L21.3867 16.7088C19.6608 20.1433 16.1058 22.5001 12 22.5001V21.0001C15.0464 21.0001 17.7399 19.4854 19.3689 17.1651C18.9198 17.2198 18.4631 17.2501 18 17.2501C11.7868 17.2501 6.75004 12.2133 6.75 6.00008Z" fill="black"/>
</svg>
