<svg width="24" height="24" viewBox="0 0 24 24" fill="none" xmlns="http://www.w3.org/2000/svg">
<path fill-rule="evenodd" clip-rule="evenodd" d="M6.34959 6.15577C6.90888 6.61063 7.1187 6.57593 8.16898 6.50578L18.0703 5.91066C18.2803 5.91066 18.1057 5.70095 18.0356 5.66611L16.3912 4.47615C16.0761 4.23129 15.6564 3.95086 14.8518 4.02101L5.26436 4.72099C4.9147 4.75569 4.84487 4.93069 4.98411 5.07095L6.34959 6.15577ZM6.94405 8.46557V18.8938C6.94405 19.4543 7.22384 19.664 7.85356 19.6293L18.7351 18.999C19.3652 18.9643 19.4353 18.5789 19.4353 18.1236V7.76528C19.4353 7.31074 19.2607 7.06563 18.875 7.10061L7.50366 7.76528C7.08399 7.80059 6.94405 8.01072 6.94405 8.46557ZM17.6863 9.02496C17.756 9.34023 17.6863 9.65521 17.3707 9.69066L16.8465 9.79522V17.494C16.3912 17.7389 15.9715 17.879 15.6217 17.879C15.0616 17.879 14.9214 17.7038 14.5019 17.1792L11.0724 11.79V17.0042L12.1576 17.2493C12.1576 17.2493 12.1576 17.879 11.2821 17.879L8.86836 18.0191C8.79824 17.879 8.86836 17.5293 9.1132 17.4593L9.74307 17.2845V10.3903L8.86854 10.3202C8.79839 10.0049 8.97307 9.55032 9.46328 9.51505L12.0526 9.34033L15.6217 14.7997V9.97019L14.7117 9.86566C14.6419 9.48024 14.9214 9.20039 15.2713 9.16569L17.6863 9.02496ZM4.45938 3.77618L14.4319 3.04105C15.6565 2.93591 15.9716 3.00634 16.7413 3.56602L19.9247 5.80566C20.4499 6.1908 20.625 6.29565 20.625 6.71548V18.999C20.625 19.7688 20.3448 20.2241 19.3653 20.2938L7.78426 20.9938C7.04897 21.0289 6.69903 20.924 6.31397 20.4338L3.96971 17.3892C3.54969 16.8288 3.375 16.4095 3.375 15.919V5.00056C3.375 4.37102 3.65525 3.84587 4.45938 3.77618Z" fill="black"/>
</svg>
