<svg width="24" height="24" viewBox="0 0 24 24" fill="none" xmlns="http://www.w3.org/2000/svg">
<path d="M20.99 11.5119C20.99 11.9822 21.0125 12.4613 20.99 12.9294L20.9773 13.1234C20.9402 13.5797 20.85 14.0244 20.6413 14.4474C20.1132 15.5412 19.0267 16.2502 17.8687 16.2503C17.8324 16.2503 17.7906 16.2461 17.7536 16.2456C17.1869 16.8799 16.4288 17.25 15.54 17.25C13.8151 17.25 12.6652 15.9174 12.445 13.9223C12.3854 13.3842 12.3749 12.6664 12.3735 11.8344V6.99865L14.751 6.99437V9.93029C14.751 11.2822 14.7611 12.4459 14.7733 12.9141C14.8344 14.9563 15.981 16.2412 17.7461 16.2452C18.2821 15.6502 18.5677 14.9177 18.6126 13.8023C18.6207 13.5682 18.6126 12.424 18.6126 11.1334V6.99437H20.99V11.5119ZM8.46117 6.75214C10.1881 6.75214 11.336 8.08899 11.5521 10.0841C11.6118 10.6223 11.6222 11.3401 11.6236 12.172V17.0078H9.2462V14.0697C9.24617 14.0607 9.24003 11.5535 9.22782 11.0859C9.16662 9.04055 8.01681 7.75402 6.24711 7.75399C6.81389 7.11965 7.57232 6.75002 8.46117 6.75V6.75214ZM6.25351 7.75441C5.7173 8.34944 5.43183 9.0825 5.38698 10.1982C5.37883 10.4324 5.38698 11.5765 5.38698 12.8671V17.0061H3.00993V12.4885C3.00993 12.077 2.9928 11.6587 3.00353 11.247L3.00993 11.0731C3.03643 10.5525 3.11975 10.0361 3.35829 9.55262C3.88635 8.45884 4.97322 7.75017 6.13126 7.75014C6.16994 7.75014 6.2148 7.7544 6.25351 7.75441Z" fill="black"/>
</svg>
