<svg width="24" height="24" viewBox="0 0 24 24" fill="none" xmlns="http://www.w3.org/2000/svg">
<path d="M7.76781 13.136C7.89802 12.2663 8.60588 11.6175 9.44912 11.6175H11.088C12.5852 11.6175 13.8123 11.2954 14.731 10.6062C15.6306 9.93142 16.3405 8.82533 16.6733 7.02238L16.6738 7.01975C16.6821 6.97539 16.6899 6.93113 16.6972 6.88675L16.6975 6.88491C16.707 6.82783 16.716 6.77033 16.7249 6.71116C16.8229 6.05184 16.812 5.56448 16.7248 5.17332C16.6403 4.79402 16.4728 4.45422 16.1812 4.10376C15.6172 3.42576 14.4598 3 12.6021 3H7.10841L4.875 17.9409H7.04927L7.76781 13.136Z" fill="black"/>
<path d="M17.5628 7.20518C17.5847 7.08722 17.6032 6.97272 17.6199 6.86016C17.9323 7.0347 18.2003 7.24882 18.4155 7.50753C19.1273 8.36323 19.2664 9.58036 18.9974 11.0384C18.3531 14.528 16.1485 15.7347 13.333 15.7347H12.8983C12.5544 15.7347 12.2616 15.9987 12.2079 16.3572L12.1726 16.5595L11.6252 20.2217L11.5966 20.3775C11.543 20.7361 11.2502 21 10.9063 21H7.99996C7.74244 21 7.54569 20.7571 7.58577 20.4887L8.66289 13.285C8.7242 12.8753 9.05622 12.5734 9.44936 12.5734H11.0882C14.3065 12.5734 16.8265 11.1942 17.5628 7.20518Z" fill="black"/>
</svg>
