<svg width="24" height="24" viewBox="0 0 24 24" fill="none" xmlns="http://www.w3.org/2000/svg">
<path d="M12.0004 3C7.0298 3 3 7.02963 3 12C3 15.8126 5.37195 19.0726 8.72024 20.3837C8.64171 19.6719 8.5706 18.5763 8.75135 17.7993C8.91506 17.097 9.80695 13.3259 9.80695 13.3259C9.80695 13.3259 9.53805 12.7867 9.53805 11.9896C9.53805 10.7385 10.2633 9.8037 11.1663 9.8037C11.9344 9.8037 12.3048 10.38 12.3048 11.0711C12.3048 11.843 11.813 12.9978 11.5596 14.0674C11.3478 14.963 12.0085 15.6941 12.8923 15.6941C14.4923 15.6941 15.7213 14.0074 15.7213 11.5726C15.7213 9.41778 14.1731 7.91111 11.9619 7.91111C9.401 7.91111 7.89798 9.83185 7.89798 11.817C7.89798 12.5904 8.19577 13.42 8.56764 13.8711C8.64097 13.96 8.65208 14.0385 8.62986 14.1289C8.56171 14.4133 8.40985 15.0244 8.38022 15.1496C8.34096 15.3141 8.24985 15.3496 8.07947 15.2704C6.95498 14.7474 6.25273 13.1037 6.25273 11.7837C6.25273 8.94444 8.31577 6.33778 12.1996 6.33778C15.322 6.33778 17.748 8.56222 17.748 11.5356C17.748 14.5089 15.7924 17.1333 13.0775 17.1333C12.1656 17.1333 11.3077 16.6593 11.0144 16.1C11.0144 16.1 10.5633 17.8185 10.4536 18.2393C10.2507 19.0207 9.70176 20.0007 9.33508 20.5985C10.1773 20.8593 11.0722 21 11.9996 21C16.9702 21 21 16.9704 21 12C21 7.02963 16.9709 3 12.0004 3Z" fill="black"/>
</svg>
