<svg width="24" height="24" viewBox="0 0 24 24" fill="none" xmlns="http://www.w3.org/2000/svg">
<path d="M21 12.1462C21 11.0256 20.1142 10.1161 19.0228 10.1161C18.4851 10.1161 18.0105 10.3273 17.6626 10.6845C16.3181 9.6939 14.4517 9.04429 12.3954 8.96309L13.297 4.62697L16.2232 5.26034C16.2548 6.02362 16.8717 6.64075 17.6309 6.64075C18.406 6.64075 19.0387 5.99114 19.0387 5.19538C19.0387 4.39961 18.406 3.75 17.6309 3.75C17.0773 3.75 16.6028 4.0748 16.3814 4.56201L13.1072 3.84744C13.0123 3.8312 12.9174 3.84744 12.8383 3.89616C12.7592 3.94488 12.7118 4.02608 12.6801 4.12352L11.6837 8.96309C9.57997 9.02805 7.69772 9.66142 6.33743 10.6845C5.98945 10.3435 5.49912 10.1161 4.97715 10.1161C3.88576 10.1161 3 11.0256 3 12.1462C3 12.9744 3.47452 13.6727 4.17047 13.9975C4.13884 14.1924 4.12302 14.4035 4.12302 14.6147C4.12302 17.7328 7.65026 20.25 12.0158 20.25C16.3814 20.25 19.9086 17.7328 19.9086 14.6147C19.9086 14.4035 19.8928 14.2087 19.8612 14.0138C20.5097 13.689 21 12.9744 21 12.1462ZM7.47627 13.5915C7.47627 12.7958 8.10896 12.1462 8.88401 12.1462C9.65905 12.1462 10.2917 12.7958 10.2917 13.5915C10.2917 14.3873 9.65905 15.0369 8.88401 15.0369C8.10896 15.0369 7.47627 14.3873 7.47627 13.5915ZM15.3374 17.408C14.3726 18.3986 12.5378 18.4636 12 18.4636C11.4622 18.4636 9.6116 18.3824 8.66257 17.408C8.52021 17.2618 8.52021 17.0182 8.66257 16.872C8.80492 16.7259 9.04218 16.7259 9.18453 16.872C9.78559 17.4892 11.0826 17.7165 12.0158 17.7165C12.949 17.7165 14.2302 17.4892 14.8471 16.872C14.9895 16.7259 15.2267 16.7259 15.3691 16.872C15.4798 17.0344 15.4798 17.2618 15.3374 17.408ZM15.0844 15.0369C14.3093 15.0369 13.6766 14.3873 13.6766 13.5915C13.6766 12.7958 14.3093 12.1462 15.0844 12.1462C15.8594 12.1462 16.4921 12.7958 16.4921 13.5915C16.4921 14.3873 15.8594 15.0369 15.0844 15.0369Z" fill="black"/>
</svg>
