<svg width="24" height="24" viewBox="0 0 24 24" fill="none" xmlns="http://www.w3.org/2000/svg">
<path fill-rule="evenodd" clip-rule="evenodd" d="M13.4143 20.3201C13.5125 20.3037 13.6123 20.3201 13.6991 20.3692C14.4307 20.7838 15.2576 21.0011 16.0985 21C16.9613 20.9946 17.8075 20.7631 18.5527 20.3285C19.298 19.8939 19.9162 19.2715 20.3456 18.5234C20.775 17.7752 21.0007 16.9276 21 16.065C20.9993 15.2025 20.7723 14.3552 20.3417 13.6077C20.2927 13.5229 20.2742 13.4239 20.2894 13.3271C20.7444 10.4463 19.665 7.4591 17.4349 5.56501C16.4993 4.77586 15.4034 4.19931 14.223 3.87525C13.0426 3.55118 11.8058 3.48732 10.5983 3.6881C10.5009 3.70456 10.4008 3.68663 10.3152 3.63737C9.57969 3.21831 8.74749 2.99861 7.90098 3.00001C7.03968 3.00533 6.19479 3.23609 5.45042 3.66933C4.70605 4.10256 4.08815 4.72316 3.65824 5.46935C3.22832 6.21553 3.00138 7.06128 3.00001 7.9224C2.99863 8.78353 3.22287 9.62999 3.6504 10.3775C3.69878 10.4629 3.71668 10.5621 3.70114 10.659C3.23385 13.5521 4.31818 16.5581 6.56132 18.4563C7.49995 19.2454 8.59911 19.8209 9.7825 20.1427C10.9659 20.4646 12.2052 20.5251 13.4143 20.3201ZM12.0804 6.285C14.668 6.43473 16.1828 7.58019 16.3293 8.64709C16.4275 9.33682 15.8334 9.95537 15.1402 9.88664C14.6337 9.88664 14.3243 9.59291 13.9732 9.25991C13.5125 8.823 12.9789 8.31737 11.8357 8.31737C10.9273 8.31737 10.1597 8.697 10.1597 9.52009C10.1597 10.2123 11.2055 10.4635 12.4552 10.7645C14.3104 11.2113 16.6149 11.7652 16.6149 14.0283C16.6149 16.2112 14.8751 17.6414 12.2809 17.6414C9.99681 17.6414 7.70048 16.6015 7.71194 14.8105C7.70575 14.5504 7.79971 14.2979 7.9744 14.1052C8.14908 13.9124 8.39115 13.7941 8.6506 13.7746C9.24555 13.7746 9.57535 14.1674 9.9428 14.6051C10.4068 15.1574 10.9314 15.7833 12.1262 15.7833C13.6279 15.7833 14.1435 14.961 14.1435 14.385C14.1435 13.5112 12.9896 13.2322 11.6532 12.909C9.82168 12.4655 7.64974 11.9403 7.64974 9.68618C7.64401 7.58019 9.36994 6.12546 12.0812 6.285H12.0804Z" fill="black"/>
</svg>
