<svg width="24" height="24" viewBox="0 0 24 24" fill="none" xmlns="http://www.w3.org/2000/svg">
<path d="M11.9999 3C7.02952 3 3 7.02951 3 12.0001C3 16.9708 7.02952 21 11.9999 21C16.9709 21 21 16.9708 21 12.0001C21 7.02983 16.9709 3.00043 11.9998 3.00043L11.9999 3ZM16.1273 15.9807C15.9661 16.245 15.62 16.3289 15.3556 16.1666C13.2425 14.8758 10.5824 14.5835 7.44962 15.2993C7.14774 15.3681 6.84682 15.1789 6.77804 14.8769C6.70893 14.5749 6.89733 14.274 7.19997 14.2052C10.6283 13.4219 13.569 13.7592 15.9413 15.209C16.2057 15.3713 16.2895 15.7163 16.1273 15.9807ZM17.2288 13.53C17.0257 13.8602 16.5937 13.9645 16.2638 13.7613C13.8446 12.2743 10.1569 11.8437 7.29551 12.7123C6.92441 12.8244 6.53247 12.6152 6.41984 12.2448C6.30807 11.8737 6.51731 11.4825 6.88776 11.3696C10.1563 10.3778 14.2197 10.8583 16.9978 12.5655C17.3277 12.7686 17.432 13.2005 17.2288 13.53ZM17.3234 10.9782C14.4228 9.25529 9.63709 9.09687 6.86767 9.93742C6.42295 10.0723 5.95266 9.82124 5.81789 9.37652C5.68312 8.93158 5.93396 8.46159 6.379 8.32639C9.5581 7.36128 14.843 7.54774 18.1825 9.53031C18.5834 9.76772 18.7145 10.2843 18.477 10.6838C18.2406 11.0838 17.7226 11.2157 17.3238 10.9782H17.3234Z" fill="black"/>
</svg>
