<svg width="24" height="24" viewBox="0 0 24 24" fill="none" xmlns="http://www.w3.org/2000/svg">
<path fill-rule="evenodd" clip-rule="evenodd" d="M11.9832 21C16.9629 21 21 16.9705 21 12C21 7.02955 16.9629 3 11.9832 3C7.26823 3 3.39838 6.61227 3 11.2162L7.85268 13.2567C8.31172 12.954 8.85372 12.8013 9.40357 12.8198L11.3783 10.011C11.3255 9.31025 11.4867 8.60999 11.8406 8.00249C12.1944 7.395 12.7244 6.90878 13.3607 6.60791C13.9969 6.30705 14.7096 6.20566 15.4047 6.3171C16.0998 6.42854 16.7448 6.74759 17.2547 7.2322C17.7645 7.71681 18.1153 8.34423 18.2608 9.03179C18.4063 9.71934 18.3396 10.4348 18.0697 11.0838C17.7997 11.7328 17.3391 12.2849 16.7485 12.6674C16.1578 13.0499 15.465 13.2448 14.7612 13.2265L11.9693 15.2015C12.0448 15.8944 11.8449 16.5891 11.4124 17.1363C10.98 17.6834 10.3496 18.0392 9.65699 18.1272C8.96435 18.2151 8.26482 18.0281 7.70892 17.6064C7.15302 17.1848 6.78519 16.5621 6.68459 15.8725L3.30493 14.4513C4.37465 18.2313 7.85432 21 11.9832 21ZM9.31914 17.4237C8.93361 17.4237 8.55672 17.3097 8.23605 17.0961C7.91538 16.8825 7.66531 16.5788 7.51742 16.2235L8.63222 16.6915C8.98008 16.8252 9.36645 16.8186 9.7095 16.673C10.0525 16.5273 10.3253 16.2541 10.47 15.9112C10.6147 15.5683 10.62 15.1826 10.4848 14.8359C10.3495 14.4891 10.0843 14.2086 9.74539 14.0536L8.72403 13.6241C8.99211 13.5385 9.27557 13.5119 9.55493 13.5461C9.8343 13.5802 10.1029 13.6743 10.3424 13.8219C10.5819 13.9695 10.7865 14.1671 10.9423 14.4011C11.098 14.6351 11.2011 14.9 11.2446 15.1775C11.2881 15.4551 11.2708 15.7387 11.194 16.009C11.1173 16.2793 10.9828 16.5298 10.7999 16.7432C10.6169 16.9567 10.3899 17.1282 10.1343 17.2458C9.87867 17.3634 9.60059 17.4235 9.31914 17.4237ZM14.9784 8.31982C14.598 8.31982 14.2331 8.47067 13.9641 8.73919C13.6951 9.00771 13.5439 9.37189 13.5439 9.75164C13.5439 10.1314 13.6951 10.4956 13.9641 10.7641C14.2331 11.0326 14.598 11.1835 14.9784 11.1835C15.3589 11.1835 15.7237 11.0326 15.9928 10.7641C16.2618 10.4956 16.4129 10.1314 16.4129 9.75164C16.4129 9.37189 16.2618 9.00771 15.9928 8.73919C15.7237 8.47067 15.3589 8.31982 14.9784 8.31982ZM12.7242 9.75164C12.7242 9.1549 12.9617 8.5826 13.3845 8.16065C13.8072 7.73869 14.3806 7.50164 14.9784 7.50164C15.5763 7.50164 16.1496 7.73869 16.5724 8.16065C16.9951 8.5826 17.2326 9.1549 17.2326 9.75164C17.2326 10.3484 16.9951 10.9207 16.5724 11.3426C16.1496 11.7646 15.5763 12.0016 14.9784 12.0016C14.3806 12.0016 13.8072 11.7646 13.3845 11.3426C12.9617 10.9207 12.7242 10.3484 12.7242 9.75164Z" fill="black"/>
</svg>
