<svg width="24" height="24" viewBox="0 0 24 24" fill="none" xmlns="http://www.w3.org/2000/svg">
<path d="M12 18.8247C12.4141 18.8247 12.7498 19.1606 12.75 19.5747V21.8247C12.75 22.2389 12.4142 22.5747 12 22.5747C11.5858 22.5747 11.25 22.2389 11.25 21.8247V19.5747C11.2502 19.1606 11.5859 18.8247 12 18.8247ZM6.13989 16.8369C6.43276 16.5441 6.90756 16.5441 7.20044 16.8369C7.49332 17.1298 7.49328 17.6046 7.20044 17.8975L5.60962 19.4883C5.31673 19.7812 4.84197 19.7812 4.54907 19.4883C4.25626 19.1954 4.2562 18.7206 4.54907 18.4277L6.13989 16.8369ZM16.7996 16.8369C17.0924 16.5441 17.5672 16.5441 17.8601 16.8369L19.4509 18.4277C19.7438 18.7206 19.7438 19.1954 19.4509 19.4883C19.158 19.7812 18.6833 19.7812 18.3904 19.4883L16.7996 17.8975C16.5067 17.6046 16.5067 17.1298 16.7996 16.8369ZM12 6C15.3137 6 18 8.68629 18 12C18 15.3137 15.3137 18 12 18C8.68629 18 6 15.3137 6 12C6 8.68629 8.68629 6 12 6ZM4.46265 11.2874C4.87675 11.2874 5.21257 11.6233 5.21265 12.0374C5.21265 12.4515 4.8768 12.7873 4.46265 12.7874H2.21265C1.79843 12.7874 1.46265 12.4516 1.46265 12.0374C1.46273 11.6232 1.79848 11.2874 2.21265 11.2874H4.46265ZM21.7874 11.2874C22.2015 11.2874 22.5373 11.6232 22.5374 12.0374C22.5374 12.4516 22.2016 12.7874 21.7874 12.7874H19.5374C19.1232 12.7873 18.7874 12.4515 18.7874 12.0374C18.7874 11.6233 19.1233 11.2874 19.5374 11.2874H21.7874ZM4.54907 4.58643C4.84197 4.2936 5.31675 4.29355 5.60962 4.58643L7.20044 6.17725C7.49331 6.47012 7.49327 6.94489 7.20044 7.23779C6.90755 7.53069 6.43279 7.53069 6.13989 7.23779L4.54907 5.64697C4.25618 5.35408 4.25618 4.87932 4.54907 4.58643ZM18.3904 4.58643C18.6832 4.29356 19.158 4.29361 19.4509 4.58643C19.7438 4.87932 19.7438 5.35408 19.4509 5.64697L17.8601 7.23779C17.5672 7.53069 17.0925 7.53069 16.7996 7.23779C16.5067 6.94489 16.5067 6.47011 16.7996 6.17725L18.3904 4.58643ZM12 1.5C12.4142 1.5 12.75 1.83579 12.75 2.25V4.5C12.75 4.91421 12.4142 5.25 12 5.25C11.5858 5.25 11.25 4.91421 11.25 4.5V2.25C11.25 1.83579 11.5858 1.5 12 1.5Z" fill="black"/>
</svg>
