<svg width="24" height="24" viewBox="0 0 24 24" fill="none" xmlns="http://www.w3.org/2000/svg">
<path d="M12 3C16.9706 3 21 7.02944 21 12C21 16.9706 16.9706 21 12 21C7.02944 21 3 16.9706 3 12C3 7.02944 7.02944 3 12 3ZM15.68 8.41802C15.3415 8.42398 14.8219 8.60454 12.3226 9.64409C11.4472 10.0082 9.69741 10.762 7.07373 11.9051C6.64793 12.0744 6.42487 12.2401 6.40444 12.4021C6.36544 12.7133 6.81333 12.8104 7.37695 12.9936C7.83647 13.143 8.45484 13.3176 8.77617 13.3245C9.06755 13.3307 9.39275 13.2106 9.75176 12.9642C12.2027 11.3097 13.4684 10.4732 13.5482 10.4549C13.6042 10.4422 13.6819 10.4261 13.7345 10.4729C13.7871 10.5197 13.7818 10.6082 13.7763 10.632C13.7316 10.8221 11.429 12.9166 11.2964 13.0542C10.79 13.5802 10.2141 13.9022 11.1026 14.4877C11.8715 14.9944 12.3193 15.3176 13.1114 15.8369C13.6175 16.1687 14.0144 16.5622 14.537 16.5141C14.7774 16.4919 15.026 16.2656 15.1522 15.5912C15.4504 13.9973 16.0363 10.5438 16.1717 9.1207C16.1836 8.99608 16.1688 8.83659 16.1568 8.7665C16.1448 8.69646 16.1195 8.59649 16.0285 8.52261C15.9207 8.43525 15.7545 8.41675 15.68 8.41802Z" fill="black"/>
</svg>
