<svg width="24" height="24" viewBox="0 0 24 24" fill="none" xmlns="http://www.w3.org/2000/svg">
<path d="M20.25 16.5C20.6642 16.5 21 16.8358 21 17.25C21 17.6642 20.6642 18 20.25 18H6.75C6.33579 18 6 17.6642 6 17.25C6 16.8358 6.33579 16.5 6.75 16.5H20.25ZM20.25 12.9998C20.6641 12.9998 20.9999 13.3356 21 13.7498C21 14.164 20.6642 14.4998 20.25 14.4998H3.75C3.33579 14.4998 3 14.164 3 13.7498C3.00012 13.3356 3.33586 12.9998 3.75 12.9998H20.25ZM20.25 9.50024C20.6642 9.50024 21 9.83603 21 10.2502C20.9999 10.6643 20.6641 11.0002 20.25 11.0002H6.75C6.33588 11.0002 6.00015 10.6643 6 10.2502C6 9.83603 6.33579 9.50024 6.75 9.50024H20.25ZM20.25 6C20.6642 6 21 6.33579 21 6.75C21 7.16421 20.6642 7.5 20.25 7.5H3.75C3.33579 7.5 3 7.16421 3 6.75C3 6.33579 3.33579 6 3.75 6H20.25Z" fill="black"/>
</svg>
