<svg width="24" height="24" viewBox="0 0 24 24" fill="none" xmlns="http://www.w3.org/2000/svg">
<path d="M18.75 16.5C19.1642 16.5 19.5 16.8358 19.5 17.25C19.5 17.6642 19.1642 18 18.75 18H5.25C4.83579 18 4.5 17.6642 4.5 17.25C4.5 16.8358 4.83579 16.5 5.25 16.5H18.75ZM20.25 12.9998C20.6641 12.9998 20.9999 13.3356 21 13.7498C21 14.164 20.6642 14.4998 20.25 14.4998H3.75C3.33579 14.4998 3 14.164 3 13.7498C3.00012 13.3356 3.33586 12.9998 3.75 12.9998H20.25ZM18.75 9.50024C19.1642 9.50024 19.5 9.83603 19.5 10.2502C19.4999 10.6643 19.1641 11.0002 18.75 11.0002H5.25C4.83588 11.0002 4.50015 10.6643 4.5 10.2502C4.5 9.83603 4.83579 9.50024 5.25 9.50024H18.75ZM20.25 6C20.6642 6 21 6.33579 21 6.75C21 7.16421 20.6642 7.5 20.25 7.5H3.75C3.33579 7.5 3 7.16421 3 6.75C3 6.33579 3.33579 6 3.75 6H20.25Z" fill="black"/>
</svg>
