<svg width="24" height="24" viewBox="0 0 24 24" fill="none" xmlns="http://www.w3.org/2000/svg">
<path d="M16.3808 11.3427C16.3019 11.3055 16.2218 11.2697 16.1407 11.2355C15.9994 8.67546 14.5767 7.20984 12.1878 7.19484C12.177 7.19478 12.1662 7.19478 12.1554 7.19478C10.7266 7.19478 9.53821 7.79446 8.80679 8.88569L10.1206 9.77183C10.667 8.95672 11.5245 8.78295 12.156 8.78295C12.1633 8.78295 12.1707 8.78295 12.1779 8.78302C12.9644 8.78795 13.558 9.01281 13.9421 9.45131C14.2217 9.77056 14.4087 10.2117 14.5013 10.7685C13.8039 10.6519 13.0497 10.6161 12.2434 10.6616C9.9722 10.7902 8.51208 12.0926 8.61014 13.9024C8.6599 14.8204 9.12503 15.6101 9.91979 16.126C10.5917 16.5622 11.4572 16.7754 12.3566 16.7272C13.5444 16.6631 14.4763 16.2175 15.1264 15.4028C15.6201 14.784 15.9324 13.9822 16.0702 12.9718C16.6363 13.3077 17.0558 13.7498 17.2875 14.2811C17.6815 15.1844 17.7045 16.6687 16.4727 17.8789C15.3934 18.939 14.0961 19.3976 12.1355 19.4118C9.96071 19.3959 8.31592 18.7102 7.24652 17.3735C6.24512 16.1218 5.72758 14.3139 5.70828 12C5.72758 9.68604 6.24512 7.87815 7.24652 6.6265C8.31592 5.28983 9.96068 4.60406 12.1355 4.58817C14.3261 4.60418 15.9996 5.29326 17.1099 6.63637C17.6543 7.29502 18.0648 8.12333 18.3354 9.08909L19.875 8.68521C19.547 7.49646 19.0309 6.4721 18.3285 5.62256C16.9051 3.90063 14.8233 3.0183 12.1409 3H12.1301C9.45321 3.01823 7.39469 3.90392 6.01178 5.63243C4.78118 7.1706 4.1464 9.31085 4.12507 11.9937L4.125 12L4.12507 12.0063C4.1464 14.6891 4.78118 16.8294 6.01178 18.3676C7.39469 20.0961 9.45321 20.9818 12.1301 21H12.1409C14.5208 20.9838 16.1984 20.3711 17.5803 19.0135C19.3884 17.2374 19.334 15.0112 18.7381 13.6445C18.3105 12.6644 17.4954 11.8684 16.3808 11.3427ZM12.2716 15.1413C11.2762 15.1964 10.242 14.7571 10.191 13.8161C10.1532 13.1184 10.696 12.3399 12.3327 12.2472C12.5201 12.2366 12.7041 12.2314 12.8847 12.2314C13.4792 12.2314 14.0354 12.2882 14.541 12.3968C14.3524 14.7127 13.2462 15.0887 12.2716 15.1413Z" fill="black"/>
</svg>
