<svg width="24" height="24" viewBox="0 0 24 24" fill="none" xmlns="http://www.w3.org/2000/svg">
<path d="M17.5228 6.60823C16.9196 6.21744 16.4237 5.68277 16.0802 5.0527C15.7367 4.42263 15.5564 3.71708 15.5556 3H12.4499L12.4445 15.4019C12.4249 15.9115 12.2553 16.4042 11.9569 16.8185C11.6585 17.2328 11.2445 17.5504 10.7663 17.7319C10.2881 17.9134 9.76693 17.9507 9.26764 17.8391C8.76835 17.7276 8.31301 17.4721 7.95831 17.1045C7.60361 16.737 7.36522 16.2735 7.27282 15.7719C7.18041 15.2703 7.23808 14.7527 7.43863 14.2835C7.63919 13.8143 7.97378 13.4143 8.40074 13.1332C8.8277 12.8522 9.32818 12.7025 9.83986 12.7028C10.1012 12.7036 10.3609 12.7442 10.61 12.823V9.66378C10.3548 9.62791 10.0975 9.60933 9.83986 9.60818C6.68859 9.60818 4.125 12.1627 4.125 15.3039C4.12731 16.8141 4.73032 18.2618 5.80182 19.3295C6.87333 20.3973 8.32589 20.998 9.84106 21C12.992 21 15.5556 18.4454 15.5556 15.3039V9.01523C16.8138 9.91753 18.325 10.4023 19.875 10.4007V7.30518C19.0396 7.30587 18.2221 7.06366 17.5228 6.60823Z" fill="black"/>
</svg>
