<svg width="24" height="24" viewBox="0 0 24 24" fill="none" xmlns="http://www.w3.org/2000/svg">
<path d="M12 13.5C15.3083 13.5 17.2149 15.1791 18.2608 16.8523C18.7755 17.6759 19.0816 18.4938 19.259 19.1023C19.3482 19.4079 19.4062 19.6648 19.4422 19.8479C19.4601 19.9394 19.4727 20.013 19.481 20.0654C19.4851 20.0915 19.4883 20.1123 19.4905 20.1277C19.4916 20.1353 19.492 20.1419 19.4927 20.1467C19.493 20.1492 19.4932 20.1516 19.4934 20.1533L19.4942 20.1555V20.1562C19.4934 20.1567 19.4692 20.1601 18.75 20.25L19.4942 20.157C19.5455 20.568 19.254 20.9428 18.843 20.9941C18.4325 21.0454 18.0579 20.7547 18.0059 20.3445C18.0058 20.3436 18.0056 20.3413 18.0051 20.3379C18.0041 20.3306 18.0021 20.3175 17.9993 20.2998C17.9937 20.2644 17.9842 20.2088 17.97 20.1365C17.9415 19.9915 17.894 19.7794 17.8191 19.5227C17.6685 19.0063 17.4118 18.3239 16.9893 17.6477C16.1601 16.321 14.6915 15 12 15C9.30855 15 7.83993 16.321 7.01075 17.6477C6.58819 18.3239 6.33154 19.0063 6.18092 19.5227C6.10607 19.7794 6.05853 19.9915 6.03004 20.1365C6.01583 20.2088 6.00635 20.2644 6.00074 20.2998C5.99794 20.3175 5.99592 20.3306 5.99488 20.3379L5.99415 20.3445C5.94208 20.7547 5.56753 21.0455 5.15699 20.9941C4.74599 20.9428 4.4545 20.568 4.50587 20.157L5.25001 20.25C4.52371 20.1592 4.50624 20.1567 4.50587 20.1562V20.1555L4.5066 20.1533C4.50682 20.1516 4.50701 20.1492 4.50734 20.1467C4.50798 20.1419 4.50846 20.1353 4.50953 20.1277C4.5117 20.1123 4.51493 20.0915 4.51905 20.0654C4.52736 20.013 4.5399 19.9394 4.55787 19.8479C4.59384 19.6648 4.65185 19.4079 4.74098 19.1023C4.91847 18.4938 5.22449 17.6759 5.73927 16.8523C6.78513 15.1791 8.69168 13.5 12 13.5ZM12 3C14.4853 3 16.5 5.01472 16.5 7.5C16.5 9.98528 14.4853 12 12 12C9.51474 12 7.50001 9.98528 7.50001 7.5C7.50001 5.01472 9.51474 3.00001 12 3ZM12 4.5C10.3432 4.50001 9.00001 5.84315 9.00001 7.5C9.00001 9.15685 10.3432 10.5 12 10.5C13.6569 10.5 15 9.15685 15 7.5C15 5.84315 13.6569 4.5 12 4.5Z" fill="black"/>
</svg>
