<svg width="24" height="24" viewBox="0 0 24 24" fill="none" xmlns="http://www.w3.org/2000/svg">
<path d="M12 3C16.9706 3 21 7.02944 21 12C21 16.9706 16.9706 21 12 21C7.02944 21 3 16.9706 3 12C3 7.02944 7.02944 3 12 3ZM12 4.5C7.85786 4.5 4.5 7.85786 4.5 12C4.5 14.1383 5.39634 16.0664 6.83203 17.4326C6.91368 17.2468 7.00979 17.0525 7.12305 16.8564C7.25507 16.5969 7.43338 16.3081 7.67383 16.0195C8.36169 15.1942 9.5009 14.4354 11.3105 14.2803C11.3515 14.2765 11.3929 14.2746 11.4346 14.2715C11.5149 14.2659 11.5968 14.261 11.6797 14.2578C11.7845 14.2535 11.8912 14.25 12 14.25C12.1087 14.25 12.2156 14.2535 12.3203 14.2578C12.403 14.261 12.4843 14.266 12.5645 14.2715C12.6062 14.2746 12.6483 14.2765 12.6895 14.2803C14.4994 14.4353 15.6383 15.1941 16.3262 16.0195C16.566 16.3073 16.7441 16.5955 16.876 16.8545C16.9896 17.0513 17.0851 17.2462 17.167 17.4326C18.6029 16.0664 19.5 14.1385 19.5 12C19.5 7.85786 16.1421 4.5 12 4.5ZM12 6C14.0711 6 15.75 7.67893 15.75 9.75C15.75 11.8211 14.0711 13.5 12 13.5C9.92893 13.5 8.25 11.8211 8.25 9.75C8.25 7.67893 9.92893 6 12 6Z" fill="black"/>
</svg>
