<svg width="24" height="24" viewBox="0 0 24 24" fill="none" xmlns="http://www.w3.org/2000/svg">
<path d="M12 3C16.9706 3 21 7.02944 21 12C21 16.9706 16.9706 21 12 21C7.02944 21 3 16.9706 3 12C3 7.02944 7.02944 3 12 3ZM12 15.75C10.0319 15.75 9.04062 16.6281 8.50781 17.4653C8.30501 17.784 8.16443 18.1057 8.06763 18.3867C9.21106 19.0922 10.5578 19.5 12 19.5C13.442 19.5 14.7883 19.092 15.9316 18.3867C15.8348 18.1058 15.6949 17.784 15.4922 17.4653C14.9594 16.6281 13.9681 15.75 12 15.75ZM12 4.5C7.85786 4.5 4.5 7.85786 4.5 12C4.5 14.1383 5.39634 16.0661 6.83203 17.4324C6.94095 17.1844 7.07505 16.9223 7.24219 16.6597C8.02189 15.4345 9.46821 14.25 12 14.25C14.5318 14.25 15.9781 15.4345 16.7578 16.6597C16.9249 16.9222 17.0583 17.1845 17.1672 17.4324C18.6032 16.0661 19.5 14.1385 19.5 12C19.5 7.85786 16.1421 4.5 12 4.5ZM12 6C14.0711 6 15.75 7.67893 15.75 9.75C15.75 11.8211 14.0711 13.5 12 13.5C9.92893 13.5 8.25 11.8211 8.25 9.75C8.25 7.67893 9.92893 6 12 6ZM12 7.5C10.7574 7.5 9.75 8.50736 9.75 9.75C9.75 10.9926 10.7574 12 12 12C13.2426 12 14.25 10.9926 14.25 9.75C14.25 8.50736 13.2426 7.5 12 7.5Z" fill="black"/>
</svg>
