<svg width="24" height="24" viewBox="0 0 24 24" fill="none" xmlns="http://www.w3.org/2000/svg">
<path d="M12 13.5C15.3082 13.5001 17.2149 15.1793 18.2607 16.8525C18.7754 17.6761 19.0813 18.4941 19.2588 19.1025C19.3478 19.4079 19.4064 19.6646 19.4424 19.8477C19.4603 19.9391 19.4722 20.013 19.4805 20.0654C19.4846 20.0915 19.4881 20.1126 19.4902 20.1279C19.4913 20.1353 19.4916 20.1417 19.4922 20.1465C19.4925 20.1488 19.4931 20.1531 19.4932 20.1533L19.4941 20.1553V20.1572C19.5207 20.3706 19.4548 20.5859 19.3125 20.7471C19.1702 20.9082 18.965 21 18.75 21H5.24999C5.03503 21 4.82984 20.9081 4.68749 20.7471C4.54517 20.5859 4.47924 20.3706 4.50585 20.1572V20.1553L4.50682 20.1533C4.50687 20.1529 4.50652 20.1488 4.50682 20.1465C4.50745 20.1417 4.50871 20.1354 4.50975 20.1279C4.51192 20.1126 4.51442 20.0914 4.51854 20.0654C4.52684 20.013 4.53963 19.9392 4.55761 19.8477C4.59357 19.6646 4.65213 19.4079 4.7412 19.1025C4.91868 18.4941 5.22452 17.6761 5.73925 16.8525C6.78511 15.1793 8.69166 13.5 12 13.5ZM12.2314 3.00586C14.6091 3.1264 16.5 5.0924 16.5 7.5C16.5 9.9076 14.6091 11.8736 12.2314 11.9941C12.1548 11.998 12.0776 12 12 12L11.7685 11.9941C9.3908 11.8737 7.49999 9.90767 7.49999 7.5C7.49999 5.09233 9.3908 3.1263 11.7685 3.00586C11.8451 3.00198 11.9224 3 12 3L12.2314 3.00586Z" fill="black"/>
</svg>
