<svg width="24" height="24" viewBox="0 0 24 24" fill="none" xmlns="http://www.w3.org/2000/svg">
<path d="M16.2018 13.809C16.021 13.7191 14.8454 13.1798 14.6646 13.0899C14.4838 13 14.3029 13 14.1221 13.1798C13.9413 13.3596 13.5796 13.8989 13.3987 14.0787C13.3083 14.2584 13.1274 14.2584 12.9466 14.1685C12.3136 13.8989 11.6806 13.5393 11.1381 13.0899C10.686 12.6405 10.2339 12.1011 9.87219 11.5618C9.78176 11.382 9.87219 11.2023 9.96261 11.1124C10.053 11.0224 10.1435 10.8427 10.3243 10.7528C10.4147 10.6629 10.5052 10.4831 10.5052 10.3933C10.5956 10.3034 10.5956 10.1236 10.5052 10.0337C10.4147 9.94382 9.96261 8.86517 9.78176 8.41573C9.69134 7.78652 9.51049 7.78652 9.32965 7.78652C9.23922 7.78652 9.05838 7.78652 8.87753 7.78652C8.69668 7.78652 8.42541 7.9663 8.33498 8.05618C7.79245 8.5955 7.52117 9.22472 7.52117 9.94382C7.6116 10.7528 7.88287 11.5618 8.42541 12.2809C9.42007 13.7191 10.686 14.8876 12.2232 15.6067C12.6753 15.7865 13.037 15.9663 13.4892 16.0562C13.9413 16.236 14.3933 16.236 14.9359 16.1461C15.5689 16.0562 16.1114 15.6067 16.4731 15.0674C16.654 14.7079 16.654 14.3483 16.5635 13.9888C16.5635 13.9888 16.3826 13.8989 16.2018 13.809ZM18.4625 5.62922C14.9359 2.12359 9.23922 2.12359 5.71271 5.62922C2.81915 8.50562 2.27661 12.9101 4.26593 16.4157L3 21L7.79245 19.7416C9.1488 20.4607 10.5956 20.8202 12.0424 20.8202C17.0157 20.8202 20.9943 16.8652 20.9943 11.9214C21.0847 9.58427 20.0901 7.33708 18.4625 5.62922ZM16.021 18.2135C14.8454 18.9326 13.4892 19.382 12.0424 19.382C10.686 19.382 9.42007 19.0225 8.24457 18.3933L7.97329 18.2135L5.17017 18.9326L5.89355 16.236L5.71271 15.9663C3.54254 12.3708 4.62762 7.8764 8.15414 5.62922C11.6806 3.38202 16.2018 4.55056 18.372 7.9663C20.5422 11.4719 19.5475 16.0562 16.021 18.2135Z" fill="black"/>
</svg>
