<svg width="24" height="24" viewBox="0 0 24 24" fill="none" xmlns="http://www.w3.org/2000/svg">
<path fill-rule="evenodd" clip-rule="evenodd" d="M19.0338 5.65322C19.8087 5.87547 20.4177 6.52793 20.6251 7.35818H20.6236C21 8.86154 21 12 21 12C21 12 21 15.1385 20.6236 16.6418C20.4162 17.4721 19.8072 18.1245 19.0323 18.3468C17.6291 18.75 12 18.75 12 18.75C12 18.75 6.37093 18.75 4.96773 18.3468C4.19279 18.1245 3.5838 17.4721 3.37636 16.6418C3 15.1385 3 12 3 12C3 12 3 8.86154 3.37636 7.35818C3.5838 6.52793 4.19279 5.87547 4.96773 5.65322C6.37093 5.25 12 5.25 12 5.25C12 5.25 17.6291 5.25 19.0338 5.65322ZM14.8775 12L10.1997 9.1076V14.8924L14.8775 12Z" fill="black"/>
</svg>
