<svg xmlns="http://www.w3.org/2000/svg" viewBox="0 0 32 32"><path d="M16 18c4.411 0 6.953 2.239 8.348 4.47a12.1 12.1 0 0 1 1.627 4.284l.012.083.003.025.001.01.001.002v.001L25 27l.992-.124a1 1 0 0 1-1.984.25l-.001-.009-.008-.05a10 10 0 0 0-.24-1.036 10 10 0 0 0-1.107-2.5C21.547 21.76 19.59 20 16 20s-5.547 1.761-6.652 3.53A10.1 10.1 0 0 0 8 27.066l-.008.051v.009a1 1 0 0 1-1.985-.25L7 27l-.992-.125v-.004l.002-.009.003-.025.012-.083q.016-.106.052-.29a12.1 12.1 0 0 1 1.575-3.994C9.047 20.239 11.59 18 16 18m0-14a6 6 0 1 1 0 12 6 6 0 0 1 0-12m0 2a4 4 0 1 0 0 8 4 4 0 0 0 0-8"/></svg>