<svg xmlns="http://www.w3.org/2000/svg" viewBox="0 0 32 32"><path d="M16 4c6.627 0 12 5.373 12 12s-5.373 12-12 12S4 22.627 4 16 9.373 4 16 4m0 17c-2.624 0-3.946 1.17-4.656 2.287a6 6 0 0 0-.587 1.229A9.95 9.95 0 0 0 16 26a9.95 9.95 0 0 0 5.242-1.484 5.8 5.8 0 0 0-.586-1.229C19.946 22.171 18.624 21 16 21m0-15C10.477 6 6 10.477 6 16a9.97 9.97 0 0 0 3.11 7.243c.145-.33.323-.68.546-1.03C10.696 20.579 12.624 19 16 19s5.304 1.58 6.344 3.213c.223.35.4.7.546 1.03A9.97 9.97 0 0 0 26 16c0-5.523-4.477-10-10-10m0 2a5 5 0 1 1 0 10 5 5 0 0 1 0-10m0 2a3 3 0 1 0 0 6 3 3 0 0 0 0-6"/></svg>