<svg xmlns="http://www.w3.org/2000/svg" viewBox="0 0 24 24"><path d="M12 3C16.9706 3 21 7.02944 21 12C21 16.9706 16.9706 21 12 21C7.02944 21 3 16.9706 3 12C3 7.02944 7.02944 3 12 3ZM13.6553 7.71973C13.3624 7.42684 12.8876 7.42684 12.5947 7.71973L8.84473 11.4697C8.55183 11.7626 8.55183 12.2374 8.84473 12.5303L12.5947 16.2803C12.8876 16.5732 13.3624 16.5732 13.6553 16.2803C13.9482 15.9874 13.9482 15.5126 13.6553 15.2197L10.4355 12L13.6553 8.78027C13.9482 8.48738 13.9482 8.01262 13.6553 7.71973Z"/></svg>