<svg xmlns="http://www.w3.org/2000/svg" viewBox="0 0 24 24"><path d="M12 3C16.9706 3 21 7.02944 21 12C21 16.9706 16.9706 21 12 21C7.02944 21 3 16.9706 3 12C3 7.02944 7.02944 3 12 3ZM12 4.5C7.85786 4.5 4.5 7.85786 4.5 12C4.5 16.1421 7.85786 19.5 12 19.5C16.1421 19.5 19.5 16.1421 19.5 12C19.5 7.85786 16.1421 4.5 12 4.5ZM15.2197 10.3447C15.5126 10.0518 15.9874 10.0518 16.2803 10.3447C16.5732 10.6376 16.5732 11.1124 16.2803 11.4053L12.5303 15.1553C12.2374 15.4482 11.7626 15.4482 11.4697 15.1553L7.71973 11.4053C7.42684 11.1124 7.42684 10.6376 7.71973 10.3447C8.01262 10.0518 8.48738 10.0518 8.78027 10.3447L12 13.5645L15.2197 10.3447Z"/></svg>