<svg xmlns="http://www.w3.org/2000/svg" viewBox="0 0 24 24"><path d="M12 3C16.9706 3 21 7.02944 21 12C21 16.9706 16.9706 21 12 21C7.02944 21 3 16.9706 3 12C3 7.02944 7.02944 3 12 3ZM12 4.5C7.85786 4.5 4.5 7.85786 4.5 12C4.5 16.1421 7.85786 19.5 12 19.5C16.1421 19.5 19.5 16.1421 19.5 12C19.5 7.85786 16.1421 4.5 12 4.5ZM12.5947 7.71973C12.8876 7.42684 13.3624 7.42684 13.6553 7.71973C13.9482 8.01262 13.9482 8.48738 13.6553 8.78027L10.4355 12L13.6553 15.2197C13.9482 15.5126 13.9482 15.9874 13.6553 16.2803C13.3624 16.5732 12.8876 16.5732 12.5947 16.2803L8.84473 12.5303C8.55183 12.2374 8.55183 11.7626 8.84473 11.4697L12.5947 7.71973Z"/></svg>