<svg xmlns="http://www.w3.org/2000/svg" viewBox="0 0 24 24"><path d="M12 3C16.9706 3 21 7.02944 21 12C21 16.9706 16.9706 21 12 21C7.02944 21 3 16.9706 3 12C3 7.02944 7.02944 3 12 3ZM12 4.5C7.85786 4.5 4.5 7.85786 4.5 12C4.5 16.1421 7.85786 19.5 12 19.5C16.1421 19.5 19.5 16.1421 19.5 12C19.5 7.85786 16.1421 4.5 12 4.5ZM15.9697 8.46973C16.2626 8.17684 16.7374 8.17684 17.0303 8.46973C17.3232 8.76262 17.3232 9.23738 17.0303 9.53027L11.0303 15.5303C10.7374 15.8232 10.2626 15.8232 9.96973 15.5303L6.96973 12.5303C6.67683 12.2374 6.67683 11.7626 6.96973 11.4697C7.26262 11.1768 7.73738 11.1768 8.03027 11.4697L10.5 13.9395L15.9697 8.46973Z"/></svg>