<svg xmlns="http://www.w3.org/2000/svg" viewBox="0 0 24 24"><path d="M5.625 17.25C6.24632 17.25 6.75 17.7537 6.75 18.375C6.75 18.9963 6.24632 19.5 5.625 19.5C5.00368 19.5 4.5 18.9963 4.5 18.375C4.5 17.7537 5.00368 17.25 5.625 17.25ZM12 17.25C12.6213 17.25 13.125 17.7537 13.125 18.375C13.125 18.9963 12.6213 19.5 12 19.5C11.3787 19.5 10.875 18.9963 10.875 18.375C10.875 17.7537 11.3787 17.25 12 17.25ZM18.375 17.25C18.9963 17.25 19.5 17.7537 19.5 18.375C19.5 18.9963 18.9963 19.5 18.375 19.5C17.7537 19.5 17.25 18.9963 17.25 18.375C17.25 17.7537 17.7537 17.25 18.375 17.25ZM5.625 10.875C6.24632 10.875 6.75 11.3787 6.75 12C6.75 12.6213 6.24632 13.125 5.625 13.125C5.00368 13.125 4.5 12.6213 4.5 12C4.5 11.3787 5.00368 10.875 5.625 10.875ZM12 10.875C12.6213 10.875 13.125 11.3787 13.125 12C13.125 12.6213 12.6213 13.125 12 13.125C11.3787 13.125 10.875 12.6213 10.875 12C10.875 11.3787 11.3787 10.875 12 10.875ZM18.375 10.875C18.9963 10.875 19.5 11.3787 19.5 12C19.5 12.6213 18.9963 13.125 18.375 13.125C17.7537 13.125 17.25 12.6213 17.25 12C17.25 11.3787 17.7537 10.875 18.375 10.875ZM5.625 4.5C6.24632 4.5 6.75 5.00368 6.75 5.625C6.75 6.24632 6.24632 6.75 5.625 6.75C5.00368 6.75 4.5 6.24632 4.5 5.625C4.5 5.00368 5.00368 4.5 5.625 4.5ZM12 4.5C12.6213 4.5 13.125 5.00368 13.125 5.625C13.125 6.24632 12.6213 6.75 12 6.75C11.3787 6.75 10.875 6.24632 10.875 5.625C10.875 5.00368 11.3787 4.5 12 4.5ZM18.375 4.5C18.9963 4.5 19.5 5.00368 19.5 5.625C19.5 6.24632 18.9963 6.75 18.375 6.75C17.7537 6.75 17.25 6.24632 17.25 5.625C17.25 5.00368 17.7537 4.5 18.375 4.5Z"/></svg>