<svg xmlns="http://www.w3.org/2000/svg" viewBox="0 0 24 24"><path d="M12 3C16.9706 3 21 7.02944 21 12C21 16.9706 16.9706 21 12 21C7.02944 21 3 16.9706 3 12C3 7.02944 7.02944 3 12 3ZM10.5 10.5C10.0858 10.5 9.75 10.8358 9.75 11.25C9.75 11.6642 10.0858 12 10.5 12H11.25V15H10.5C10.0858 15 9.75 15.3358 9.75 15.75C9.75 16.1642 10.0858 16.5 10.5 16.5H13.5C13.9142 16.5 14.25 16.1642 14.25 15.75C14.25 15.3358 13.9142 15 13.5 15H12.75V10.5H10.5ZM11.8125 7.5C11.2947 7.5 10.875 7.91973 10.875 8.4375C10.875 8.95527 11.2947 9.375 11.8125 9.375C12.3303 9.375 12.75 8.95527 12.75 8.4375C12.75 7.91973 12.3303 7.5 11.8125 7.5Z"/></svg>