<svg xmlns="http://www.w3.org/2000/svg" viewBox="0 0 24 24"><path d="M11.25 4.5C11.6642 4.5 12 4.83579 12 5.25C12 5.66421 11.6642 6 11.25 6H6V18H18V12.75C18 12.3358 18.3358 12 18.75 12C19.1642 12 19.5 12.3358 19.5 12.75V18.75C19.5 19.1642 19.1642 19.5 18.75 19.5H5.25C4.83579 19.5 4.5 19.1642 4.5 18.75V5.25C4.5 4.83579 4.83579 4.5 5.25 4.5H11.25ZM20.25 3C20.6642 3.00001 21 3.33579 21 3.75V8.25C21 8.55331 20.8173 8.82725 20.5371 8.94336C20.2569 9.05935 19.9342 8.99472 19.7197 8.78027L18 7.06055L13.2803 11.7803C12.9874 12.0732 12.5126 12.0732 12.2197 11.7803C11.9268 11.4874 11.9268 11.0126 12.2197 10.7197L16.9395 6L15.2197 4.28027C15.0052 4.06577 14.9415 3.74315 15.0576 3.46289C15.1738 3.18279 15.4468 3 15.75 3H20.25Z"/></svg>