<svg xmlns="http://www.w3.org/2000/svg" viewBox="0 0 24 24"><path d="M11.25 4.5C11.6642 4.5 12 4.83579 12 5.25C12 5.66421 11.6642 6 11.25 6H6V18H18V12.75C18 12.3358 18.3358 12 18.75 12C19.1642 12 19.5 12.3358 19.5 12.75V18C19.5 18.8284 18.8284 19.5 18 19.5H6C5.17157 19.5 4.5 18.8284 4.5 18V6C4.5 5.17157 5.17157 4.5 6 4.5H11.25ZM20.25 3C20.6642 3.00001 21 3.33579 21 3.75V9.75C21 10.1642 20.6642 10.5 20.25 10.5C19.8358 10.5 19.5 10.1642 19.5 9.75V5.56055L13.2803 11.7803C12.9874 12.0732 12.5126 12.0732 12.2197 11.7803C11.9268 11.4874 11.9268 11.0126 12.2197 10.7197L18.4395 4.5H14.25C13.8358 4.5 13.5 4.16421 13.5 3.75C13.5 3.33579 13.8358 3 14.25 3H20.25Z"/></svg>