<svg xmlns="http://www.w3.org/2000/svg" viewBox="0 0 32 32"><path d="M16 5c.3632.00001.6977.19719.874.51465l10 17.99995c.1719.3096.1677.687-.0117.9922-.1797.3054-.508.4932-.8623.4932H6.00001c-.35432 0-.68262-.1878-.86231-.4932-.17942-.3052-.18362-.6826-.01172-.9922L15.126 5.51465l.0732-.11328C15.3864 5.15093 15.6822 5 16 5ZM7.69923 23H24.3008L16 8.05859 7.69923 23ZM16 20c.5523 0 1 .4477 1 1s-.4477 1-1 1-1-.4477-1-1 .4477-1 1-1Zm0-8c.5523 0 1 .4477 1 1v5c0 .5523-.4477 1-1 1s-1-.4477-1-1v-5c0-.5523.4477-1 1-1Z"/></svg>