<svg xmlns="http://www.w3.org/2000/svg" viewBox="0 0 32 32"><path d="M7.5 23c.82843 0 1.5.6716 1.5 1.5S8.32843 26 7.5 26 6 25.3284 6 24.5 6.67157 23 7.5 23Zm8.5 0c.8284 0 1.5.6716 1.5 1.5S16.8284 26 16 26s-1.5-.6716-1.5-1.5.6716-1.5 1.5-1.5Zm8.5 0c.8284 0 1.5.6716 1.5 1.5s-.6716 1.5-1.5 1.5-1.5-.6716-1.5-1.5.6716-1.5 1.5-1.5Zm-17-8.5c.82843 0 1.5.6716 1.5 1.5s-.67157 1.5-1.5 1.5S6 16.8284 6 16s.67157-1.5 1.5-1.5Zm8.5 0c.8284 0 1.5.6716 1.5 1.5s-.6716 1.5-1.5 1.5-1.5-.6716-1.5-1.5.6716-1.5 1.5-1.5Zm8.5 0c.8284 0 1.5.6716 1.5 1.5s-.6716 1.5-1.5 1.5S23 16.8284 23 16s.6716-1.5 1.5-1.5ZM7.5 6C8.32843 6 9 6.67157 9 7.5S8.32843 9 7.5 9 6 8.32843 6 7.5 6.67157 6 7.5 6ZM16 6c.8284 0 1.5.67157 1.5 1.5S16.8284 9 16 9s-1.5-.67157-1.5-1.5S15.1716 6 16 6Zm8.5 0c.8284 0 1.5.67157 1.5 1.5S25.3284 9 24.5 9 23 8.32843 23 7.5 23.6716 6 24.5 6Z"/></svg>