<svg xmlns="http://www.w3.org/2000/svg" viewBox="0 0 32 32"><path d="M16 4c6.6274 0 12 5.37258 12 12 0 6.6274-5.3726 12-12 12-6.62742 0-12-5.3726-12-12C4 9.37258 9.37258 4 16 4Zm0 17c-2.6242 0-3.9458 1.1707-4.6562 2.2871-.2705.425-.4579.8539-.587 1.2285C12.2814 25.4563 14.077 26 16 26c1.9227 0 3.7178-.5439 5.2422-1.4844-.1291-.3746-.3156-.8037-.586-1.2285C19.9458 22.1707 18.6242 21 16 21Zm0-15C10.4772 6 6 10.4772 6 16c0 2.8511 1.19512 5.4215 3.10938 7.2432.14522-.3306.32402-.6801.54687-1.0303C10.6959 20.5793 12.6243 19 16 19s5.3041 1.5793 6.3438 3.2129c.2227.3501.4007.6998.5458 1.0303C24.8042 21.4215 26 18.8514 26 16c0-5.5228-4.4772-10-10-10Zm0 2c2.7614 0 5 2.2386 5 5s-2.2386 5-5 5-5-2.2386-5-5 2.2386-5 5-5Zm0 2c-1.6569 0-3 1.3431-3 3s1.3431 3 3 3 3-1.3431 3-3-1.3431-3-3-3Z"/></svg>