<svg xmlns="http://www.w3.org/2000/svg" viewBox="0 0 32 32"><path d="M16 18c4.4111 0 6.9532 2.2388 8.3477 4.4697.6863 1.0982 1.0944 2.1887 1.331 3 .1189.4075.1962.75.2442.9942.0239.122.0407.2201.0517.29.0055.0347.0098.0626.0127.083.0015.0102.0021.019.0029.0254.0005.0032.0007.0065.001.0088l.001.0029v.001c-.001.0007-.0332.0051-.9922.125l.9922-.124c.0685.548-.3201 1.0477-.8682 1.1162-.5473.0684-1.0467-.3192-1.1162-.8662-.0001-.0012-.0003-.0042-.0009-.0088a3.36462 3.36462 0 0 0-.0079-.0508c-.0074-.0472-.0201-.1213-.039-.2178-.038-.1933-.1014-.4761-.2012-.8183-.2008-.6886-.543-1.5985-1.1064-2.5C21.5468 21.7614 19.5886 20 16 20s-5.5468 1.7614-6.65233 3.5303c-.56341.9015-.90562 1.8114-1.10644 2.5-.09981.3422-.16319.625-.20118.8183-.01894.0965-.03158.1706-.03906.2178a3.73813 3.73813 0 0 0-.00781.0508l-.00098.0088c-.06943.547-.56883.9346-1.11621.8662-.548-.0685-.93666-.5682-.86816-1.1162l.99219.124c-.96841-.1211-.9917-.1244-.99219-.125v-.001l.00097-.0029c.0003-.0023.00055-.0056.00098-.0088.00086-.0064.00149-.0152.00293-.0254a5.5399 5.5399 0 0 1 .0127-.083c.01106-.0699.02779-.168.05175-.29.04796-.2442.12531-.5867.24414-.9942.23666-.8113.64469-1.9018 1.33106-3C9.04683 20.2388 11.5889 18 16 18Zm0-14c3.3137 0 6 2.68629 6 6 0 3.3137-2.6863 6-6 6s-6-2.6863-6-6 2.6863-5.99999 6-6Zm0 2c-2.2091.00001-4 1.79087-4 4 0 2.2091 1.7909 4 4 4 2.2092 0 4-1.7909 4-4 0-2.20914-1.7908-4-4-4Z"/></svg>