<svg xmlns="http://www.w3.org/2000/svg" viewBox="0 0 32 32"><path d="M16 4c6.6274 0 12 5.37258 12 12 0 6.6274-5.3726 12-12 12-6.62742 0-12-5.3726-12-12C4 9.37258 9.37258 4 16 4Zm0 2C10.4772 6 6 10.4772 6 16s4.4772 10 10 10 10-4.4772 10-10S21.5228 6 16 6Zm3.293 5.293c.3905-.3906 1.0235-.3906 1.414 0 .3906.3905.3906 1.0235 0 1.414L17.4141 16l3.2929 3.293c.3906.3905.3906 1.0235 0 1.414-.3905.3906-1.0235.3906-1.414 0L16 17.4141l-3.293 3.2929c-.3905.3906-1.0235.3906-1.414 0-.3906-.3905-.3906-1.0235 0-1.414L14.5859 16l-3.2929-3.293c-.3906-.3905-.3906-1.0235 0-1.414.3905-.3906 1.0235-.3906 1.414 0L16 14.5859l3.293-3.2929Z"/></svg>