<svg xmlns="http://www.w3.org/2000/svg" viewBox="0 0 32 32"><path d="M16 4c6.627 0 12 5.373 12 12s-5.373 12-12 12S4 22.627 4 16 9.373 4 16 4m0 2C10.477 6 6 10.477 6 16a9.97 9.97 0 0 0 3.11 7.243q.161-.374.387-.767c.176-.346.414-.732.734-1.117.918-1.1 2.436-2.112 4.85-2.319q.082-.006.165-.012a10.5 10.5 0 0 1 1.507 0q.084.005.166.012c2.414.207 3.932 1.219 4.85 2.32.32.383.556.767.732 1.113.151.262.28.522.389.77A9.97 9.97 0 0 0 26 16c0-5.523-4.477-10-10-10m0 2a5 5 0 1 1 0 10 5 5 0 0 1 0-10"/></svg>