<svg viewBox="0 0 24 24"><path d="M12 3C16.9706 3 21 7.02944 21 12C21 16.9706 16.9706 21 12 21C7.02944 21 3 16.9706 3 12C3 7.02944 7.02944 3 12 3ZM12 4.5C7.85786 4.5 4.5 7.85786 4.5 12C4.5 16.1421 7.85786 19.5 12 19.5C16.1421 19.5 19.5 16.1421 19.5 12C19.5 7.85786 16.1421 4.5 12 4.5ZM11.4697 8.84473C11.7626 8.55184 12.2374 8.55184 12.5303 8.84473L16.2803 12.5947C16.5732 12.8876 16.5732 13.3624 16.2803 13.6553C15.9874 13.9482 15.5126 13.9482 15.2197 13.6553L12 10.4355L8.78027 13.6553C8.48738 13.9482 8.01262 13.9482 7.71973 13.6553C7.42683 13.3624 7.42683 12.8876 7.71973 12.5947L11.4697 8.84473Z"/></svg>