<svg viewBox="0 0 24 24"><path d="M12 17.25C12.6213 17.25 13.125 17.7537 13.125 18.375C13.125 18.9963 12.6213 19.5 12 19.5C11.3787 19.5 10.875 18.9963 10.875 18.375C10.875 17.7537 11.3787 17.25 12 17.25ZM12 10.875C12.6213 10.875 13.125 11.3787 13.125 12C13.125 12.6213 12.6213 13.125 12 13.125C11.3787 13.125 10.875 12.6213 10.875 12C10.875 11.3787 11.3787 10.875 12 10.875ZM12 4.5C12.6213 4.5 13.125 5.00368 13.125 5.625C13.125 6.24632 12.6213 6.75 12 6.75C11.3787 6.75 10.875 6.24632 10.875 5.625C10.875 5.00368 11.3787 4.5 12 4.5Z"/></svg>