<svg viewBox="0 0 24 24"><path d="M12 3C16.9706 3 21 7.02944 21 12C21 16.9706 16.9706 21 12 21C7.02944 21 3 16.9706 3 12C3 7.02944 7.02944 3 12 3ZM12 4.5C7.85786 4.5 4.5 7.85786 4.5 12C4.5 16.1421 7.85786 19.5 12 19.5C16.1421 19.5 19.5 16.1421 19.5 12C19.5 7.85786 16.1421 4.5 12 4.5ZM12 15C12.4142 15 12.75 15.3358 12.75 15.75C12.75 16.1642 12.4142 16.5 12 16.5C11.5858 16.5 11.25 16.1642 11.25 15.75C11.25 15.3358 11.5858 15 12 15ZM12 7.5C12.4142 7.5 12.75 7.83579 12.75 8.25V12.75C12.75 13.1642 12.4142 13.5 12 13.5C11.5858 13.5 11.25 13.1642 11.25 12.75V8.25C11.25 7.83579 11.5858 7.5 12 7.5Z"/></svg>