<svg viewBox="0 0 24 24"><path d="M12 3C16.9706 3 21 7.02944 21 12C21 16.9706 16.9706 21 12 21C7.02944 21 3 16.9706 3 12C3 7.02944 7.02944 3 12 3ZM12 4.5C7.85786 4.5 4.5 7.85786 4.5 12C4.5 16.1421 7.85786 19.5 12 19.5C16.1421 19.5 19.5 16.1421 19.5 12C19.5 7.85786 16.1421 4.5 12 4.5ZM12.75 15H13.5C13.9142 15 14.25 15.3358 14.25 15.75C14.25 16.1642 13.9142 16.5 13.5 16.5H10.5C10.0858 16.5 9.75 16.1642 9.75 15.75C9.75 15.3358 10.0858 15 10.5 15H11.25V12H10.5C10.0858 12 9.75 11.6642 9.75 11.25C9.75 10.8358 10.0858 10.5 10.5 10.5H12.75V15ZM11.8125 7.5C12.3303 7.5 12.75 7.91973 12.75 8.4375C12.75 8.95527 12.3303 9.375 11.8125 9.375C11.2947 9.375 10.875 8.95527 10.875 8.4375C10.875 7.91973 11.2947 7.5 11.8125 7.5Z"/></svg>