<svg viewBox="0 0 24 24"><path d="M12 3C16.9706 3 21 7.02944 21 12C21 16.9706 16.9706 21 12 21C7.02944 21 3 16.9706 3 12C3 7.02944 7.02944 3 12 3ZM12 4.5C7.85786 4.5 4.5 7.85786 4.5 12C4.5 16.1421 7.85786 19.5 12 19.5C16.1421 19.5 19.5 16.1421 19.5 12C19.5 7.85786 16.1421 4.5 12 4.5ZM14.4697 8.46973C14.7626 8.17683 15.2374 8.17683 15.5303 8.46973C15.8232 8.76262 15.8232 9.23738 15.5303 9.53027L13.0605 12L15.5303 14.4697C15.8232 14.7626 15.8232 15.2374 15.5303 15.5303C15.2374 15.8232 14.7626 15.8232 14.4697 15.5303L12 13.0605L9.53027 15.5303C9.23738 15.8232 8.76262 15.8232 8.46973 15.5303C8.17683 15.2374 8.17683 14.7626 8.46973 14.4697L10.9395 12L8.46973 9.53027C8.17683 9.23738 8.17683 8.76262 8.46973 8.46973C8.76262 8.17683 9.23738 8.17683 9.53027 8.46973L12 10.9395L14.4697 8.46973Z"/></svg>